<?xml version="1.0" encoding="UTF-8" standalone="no"?>
<svg id="svg4507" xmlnsRdf="http://www.w3.org/1999/02/22-rdf-syntax-ns#" xmlns="http://www.w3.org/2000/svg" height="1046" viewBox="0 0 816 1046" width="816" version="1.1" xmlnsCc="http://creativecommons.org/ns#" xmlnsDc="http://purl.org/dc/elements/1.1/">
<path id="path4517" d="m79.5 1044.3c-21.357-6.0961-23.5-7.3103-23.5-13.316 0-1.9941 0.41123-4.0532 0.91385-4.5757s3.0179-5 5.5895-9.95 5.2328-9.45 5.9138-10c0.68099-0.55 2.9147-3.2034 4.9638-5.8965 2.0491-2.693 5.8959-6.6244 8.5484-8.7364 5.877-4.64 16.07-25.1 16.07-32.22 0-0.36693 2.8125-5.3803 6.25-11.141 9.8595-16.523 11.227-19.376 14.121-29.471 3.7574-13.108 5.615-18.986 7.1096-22.5 1.7481-4.1094 3.8279-10.51 6.4992-20 1.2385-4.4 3.1646-10.614 4.2803-13.809 1.6835-4.8214 1.9305-7.323 1.452-14.708-1.0101-15.591 1.958-29.566 11.266-53.048 6.6763-16.843 6.9183-18.767 7.4347-59.135 0.51391-40.175 0.88814-43.314 7.1837-60.259l3.7002-9.9592-1.6319-7.0408c-2.8512-12.302-6.4931-33.775-7.0635-41.647-0.5088-7.0219-2.3555-18.356-4.6575-28.587-1.9856-8.8243-1.2303-14.685 2.9682-23.031 10.42-20.714 12.113-29.101 10.703-53.026-0.99208-16.837-1.5996-17.149-15.615-8.023-1.375 0.8953-4.525 2.4005-7 3.3449-2.7898 1.0645-6.6598 3.9425-10.183 7.5726-6.8194 7.0267-14.713 6.971-19.817-0.13995-2.6945-3.7537-9.1374-0.81392-14.089 6.4287-3.3874 4.9543-6.7847 6.1702-13.141 4.7031-5.8614-1.353-8.1755-0.11894-9.2896 4.9538-1.21 5.5089-4.7378 6.8402-18.923 7.141l-12.69 0.29-3.185-3.64c-1.7518-1.9998-4.28-5.1764-5.6182-7.0589-1.8248-2.5671-4.3201-4.1581-9.981-6.3639-11.666-4.5455-13.984-10.2-10.487-25.577 2.4384-10.721 1.6555-22.239-1.8589-27.346-3.4056-4.949-3.6344-10.453-0.61098-14.699 2.4601-3.4549 2.2754-7.5829-1.2408-27.727-1.112-6.37-2.42-15.19-2.907-19.59-0.486-4.4-1.3627-11.15-1.9485-15-2.1559-14.17-2.2879-17.57-0.9711-24.98 0.7352-4.13 1.5846-7.52 1.8876-7.52 1.554-0.02 0.511-33.56-1.1189-36-1.5917-2.3828-1.4947-3.2498 2.0703-18.5 3.5879-15.349 3.6656-16.054 1.9066-17.316-1.0085-0.72385-2.7881-3.1988-3.9546-5.5s-2.5446-4.4566-3.0624-4.7898c-0.51782-0.33323-1.1935-2.5832-1.5015-5-0.3081-2.41-1.0253-5.29-1.594-6.39-3.1068-6.01-2.4144-22.57 1.1407-27.28l1.7178-2.2774 6.4735 6.1092c3.5604 3.3601 10.549 8.9593 15.529 12.443 4.9806 3.4835 9.7056 7.1173 10.5 8.0752 1.8266 2.2025 7.0946 4.4317 10.473 4.4317h2.5927l-0.67771-6.8776c-0.6554-6.6512 0.86486-14.741 4.7555-25.305 1.2668-3.4398 1.939-3.1839 13.959 5.3138 5.3117 3.7552 10.75 7.3253 12.085 7.9336 1.3349 0.60823 3.2181 2.4448 4.1847 4.0813 0.96669 1.6365 3.4036 4.1856 5.4153 5.6648 2.815 2.0698 3.692 3.4419 3.8069 5.9555 0.32517 7.1181 2.6066 7.6187 12.351 2.7104 6.999-3.5255 40.637-5.0198 44.023-1.9556 1.545 1.3982 5.3448 1.0683 7.5697-0.65726 1.4344-1.1125 28.966-1.4788 33.157-0.44122 3.66 0.90609 4.1687 2.8966 1.5 5.8698-1.7725 1.9748 5.9806 1.8613 10.75-0.1573 3.081-1.304 29-0.12298 29 1.3214 0 0.74143 1.384 1.8305 3.0755 2.4202 2.5984 0.90581 2.963 1.4252 2.3501 3.3478-0.39897 1.2516-0.77046 2.8836-0.82554 3.6266-0.24545 3.3112 26.637 9.7606 36.9 8.8529 8.8316-0.78119 10.722 2.2962 2.8251 4.5989-6.4512 1.8811-4.1976 2.8358 7.5312 3.1905 17.236 0.5213 24.691 7.2598 9.6437 8.7164-4.2008 0.40666-3.8756 3.0083 0.50556 4.0444 2.3298 0.55099 4.075 1.8213 5.2035 3.7875 1.4786 2.5763 2.2694 2.9585 6.122 2.9585 2.7126 0 4.9057 0.5803 5.669 1.5 3.3203 4.0007 3.539 1.2883 1.0482-13-3.2659-18.735-3.1188-19.435 10.21-48.566 1.4005-3.061 2.9829-7.111 3.5163-9 0.53345-1.889 4.5822-11.76 8.9972-21.934 11.978-27.606 19.336-46.017 18.762-46.946-2.1624-3.4989 8.8257-19.119 17.454-24.812 3.0319-2.0004 8.132-5.8054 11.334-8.4556 3.2016-2.6502 7.4766-5.6651 9.5-6.6999 7.626-3.8998 19.365-18.103 13.81-16.709-4.0321 1.012-9.8654-4.0588-11.458-9.9603-2.1463-7.9525-7.4072-17.849-9.6788-18.206-7.9583-1.2536-9.539-5.5194-5.6689-15.299 5.73-14.446 4.15-19.4-6.16-19.4h-7.1643l-0.31738-3.3039c-0.34-3.581 4.89-9.538 11.32-12.878 6.53-3.393 6.5-3.309 6.5-18.957 0-19.272 0.63-20.11 16.02-21.455 5.77-0.5029 13.75-1.2032 17.75-1.5559 9.18-0.8108 27.51 1.3337 32.44 3.7966 2.04 1.0193 5.05 1.8533 6.69 1.8533 4.403 0 7.5254 1.4725 11.682 5.5092l3.7207 3.6133-0.64845 11.189c-0.72585 12.524-1.0438 14.689-2.5794 17.558-1.9165 3.5809-1.246 5.0062 2.8776 6.1165 4.5517 1.2256 8.94 5.2597 12.699 11.673l2.632 4.4912-1.9901 2.6748c-1.72 2.311-2.9 2.744-8.62 3.176-9.97 0.752-19.67 16.246-19.67 31.42 0 4.9012 27.599 32.691 35.76 36.006 2.6069 1.0592 6.0898 2.9349 7.7398 4.1682s7.3875 4.3029 12.75 6.8213 9.7528 4.9177 9.7563 5.3318c0.003 0.41411 1.2487 1.4594 2.7672 2.3228 2.1492 1.2221 4.4553 5.3206 10.409 18.5 9.9523 22.029 10.721 23.908 12.457 30.43 0.80508 3.025 2.5188 7.3006 3.8082 9.5014 2.8519 4.8674 13.552 31.31 13.552 33.491 0 0.85969 0.61115 2.4507 1.3581 3.5356 0.74696 1.0849 1.67 3.7725 2.0511 5.9725 0.38114 2.2 2.5149 11.425 4.7417 20.5 7.1369 29.085 6.4234 30.414-24.151 44.976-42.929 20.446-42 19.927-42 23.454 0 1.7438-0.49521 3.6657-1.1005 4.271-0.80063 0.80063-0.35075 2.4218 1.6512 5.95 5.8302 10.275 8.5578 14.082 14.937 20.85 3.6296 3.85 9.332 10.712 12.672 15.25 4.0616 5.5177 6.7794 8.3011 8.2063 8.4042 1.1734 0.0848 7.9834 0.26101 15.133 0.39159 17.123 0.3127 33.103 1.9636 37.718 3.8969 4.6161 1.9336 8.0738 1.975 11.624 0.13925 1.5083-0.77996 5.3754-2.3436 8.5936-3.4747s6.5743-2.696 7.458-3.4776c3.4758-3.0741 11.679-4.8632 25.607-5.5846 44.786-2.3196 104.02 23.638 130.24 57.067 2.6192 3.3402 6.2857 7.7189 8.1479 9.7304 1.8621 2.0115 3.9884 5.0785 4.7251 6.8156s1.7066 3.3121 2.1553 3.5c8.5652 3.5864 20.963 50.923 19.971 76.251-0.61942 15.815-10.239 48.498-16.384 55.669-0.74413 0.86831-1.353 2.3298-1.353 3.2477 0 0.91792-1.505 3.8075-3.3446 6.4213-1.8395 2.6138-4.8548 7.4523-6.7006 10.752-1.8458 3.3-5.6704 9.6-8.499 14-5.3197 8.275-8.7304 15.092-11.007 22-0.72505 2.2-2.2572 6.475-3.4048 9.5-7.6272 20.105-5.1069 34.397 6.4482 36.565 3.94 0.73915 7.3832 3.9601 5.8608 5.4825-1.7882 1.7882-15.395-0.0572-17.247-2.3392-0.88318-1.088-4.1755-4.9174-7.3162-8.5098-9.566-10.942-11.182-16.27-10.904-35.95 0.31177-22.068-2.7997-24.194-6.2175-4.2476-3.5052 20.456-2.0648 34.318 5.4132 52.097 2.7053 6.4317 4.9188 12.117 4.9188 12.633 0 0.5164 1.7562 3.4459 3.9026 6.51s4.2242 6.6262 4.6174 7.9158c1.447 4.746 6.8632 10.788 10.614 11.84 6.7072 1.8812 8.401 7.8075 2.0539 7.1864-12.655-1.2385-32.782-14.573-43.668-28.932-7.197-9.4929-7.7045-4.9869-0.86136 7.6486 8.0767 14.913 16.944 25.487 28.592 34.093 6.5482 4.8384 7.4033 7.695 3.1398 10.489-2.5715 1.6849-2.6643 1.6576-6.25-1.8362-3.75-3.66-9.62-6.66-13-6.66-1.0524 0-3.0296-1.4625-4.3937-3.25-1.3642-1.7875-5.4978-6.175-9.1858-9.75s-7.647-8.075-8.7976-10c-3.8154-6.3833-7.7737-8.6583-7.7737-4.4679 0 5.8756 5.9137 15.241 16.857 26.695 5.4275 5.6809 6.2302 6.9636 5.1626 8.25-2.2327 2.6902-3.7351 1.7295-15.547-9.9409-6.3817-6.3053-14.024-12.849-16.984-14.543-2.9593-1.6932-5.6388-3.8919-5.9543-4.8862-0.31556-0.99424-2.9636-5.4402-5.8845-9.8798-7.4192-11.277-9.1205-18.029-8.3414-33.107 0.55683-10.776 1.2733-14.236 5.7928-27.974 1.0281-3.1249 0.87104-3.6017-2.3052-7-18.336-19.618-16.859-37.452 5.8072-70.147 11.809-17.034 23.327-45.5 18.411-45.5-0.81747 0-1.6514 0.9-1.8532 2-0.20182 1.1-0.94121 2.675-1.6431 3.5s-2.0686 3.075-3.0371 5c-1.9827 3.9406-11.091 13-13.07 13-2.4348 0-2.4223-1.832 0.0323-4.7492 1.3507-1.6052 3.3779-5.2579 4.5049-8.1171s2.7741-6.3051 3.6602-7.6575c5.0608-7.7238 8.2976-36.733 5.8552-52.476-2.4311-15.67-3.0942-18.265-6.0916-23.838-1.58-2.92-3.99-7.51-5.37-10.19-4.01-7.79-21.3-24.96-25.14-24.96-2.1321 0-1.4286 3.1772 1.2377 5.5902 1.0452 0.94587 1.9003 2.1709 1.9003 2.7224 0 0.55145 1.7366 3.2942 3.8592 6.095 16.39 21.627 23.642 87.102 12.047 108.77-0.60913 1.1382-0.86162 3.2988-0.5611 4.8014s0.11953 3.1589-0.4022 3.6806c-0.52173 0.52173-2.1146 4.9748-3.5396 9.8958-3.0397 10.497-18.639 42.468-24.331 49.868-5.0934 6.6215-12.319 21.366-14.496 29.58-0.94741 3.575-3.432 9.875-5.5213 14-13.487 26.627-11.894 34.025 8.2808 38.458 10.891 2.3931 14.218 11.276 10.204 27.252-2.4746 9.8506-6.0784 37.611-5.0902 39.21 0.79393 1.2846-1.3413 33.005-2.5126 37.325-1.4392 5.3093-3.0858 25.449-2.3857 29.181 0.48037 2.5606 1.6171 3.6688 6.2588 6.1014 7.7263 4.0493 8.4347 5.7127 7.7214 18.131-0.44547 7.7549-0.28174 10.265 0.6921 10.611 1.4094 0.50058 8.2764-2.6525 9.2668-4.255 2.4216-3.9182 18.833 3.0672 27.1 11.535 6.0658 6.213 6.4573 8.0298 4.2786 19.854-0.80557 4.372-0.83022 7.5411-0.0858 11.031 0.86258 4.0444 0.76666 5.3212-0.55078 7.3319-0.8774 1.3391-1.9264 4.8752-2.3312 7.858-1.892 13.942-9.1276 22.085-16.191 18.22-7.5418-4.1259-9.5111-5.3841-12.496-7.984-1.8-1.58-3.63-2.87-4.05-2.87-0.42634 0-2.7328-3.0375-5.1256-6.75-8.4673-13.138-9.2022-14.079-11.852-15.179-6.6028-2.742-7.9649-8.1232-4.7008-18.571 0.84377-2.7006-7.5586-9.0009-14.158-10.616-20.569-5.034-26.687-24.869-22.865-74.134 1.314-16.937-3.9461-10.539-10.892 13.25-1.7694 6.0599-3.6227 8.7336-7.8987 11.395-8.941 5.5646-20.825 49.584-18.621 68.977 2.374 20.892-7.0345 36.511-21.413 35.548-6.5832-0.44125-6.7467-0.32016-6.5216 4.8311 0.11415 2.6125-0.13629 5.5375-0.55652 6.5-0.5491 1.2576-0.31195 1.75 0.84292 1.75 0.88385 0 1.607-0.45 1.607-1 0-2.0493 4.7156-0.90433 7.2075 1.75 3.71 3.9519 4.3031 8.079 1.9212 13.369-2.9839 6.627-4.8333 11.139-5.5766 13.605-0.92199 3.0588-5.2727 6.2761-8.487 6.2761-1.4658 0-3.0926 0.4068-3.6151 0.9039-0.89557 0.8521-7.3903 1.3419-35.965 2.7125-15.06 0.7-26.48-2.1-26.48-6.5 0-2.2482 3.3004-9.615 6.6861-14.924 2.0976-3.2892 5.7186-9.0517 8.0465-12.805 5.5781-8.9945 8.3898-11.889 12.972-13.352 2.0874-0.66666 5.7817-2.7333 8.2094-4.5925 2.4278-1.8592 4.7385-3.3804 5.135-3.3804 2.1611 0 4.3494-6.1132 5.0032-13.977 1.0649-12.809 4.0024-21.411 9.7403-28.523 6.6538-8.2474 12.67-19.918 15.723-30.5 0.71413-2.475 3.0081-9.225 5.0976-15l3.7992-10.5 0.19067-20c0.18687-19.602 1.1385-28.333 3.5725-32.777 0.77811-1.4208 1.4699-9.9824 1.9168-23.723 0.38462-11.825 1.2326-27.756 1.8845-35.403 1.4434-16.932 1.0968-17.716-9.565-21.644-7.6464-2.8168-8.743-3.2888-22.446-9.6594-12.183-5.6641-21.526-14.702-27.436-26.542-5.6942-11.407-5.4742-11.296-16.126-8.175-17.827 5.2233-21.343 8.1321-18.086 14.963 5.2592 11.029 3.8085 12.91-12.992 16.843-12.735 2.9819-18.515 3.2994-20.326 1.1164-1.561-1.8808-5.3305-1.8912-10.5-0.0288-7.9816 2.8755-13.829 1.5726-17.085-3.8064-2.9076-4.8046-2.5051-35.639 0.53942-41.319 1.1249-2.0989 2.0453-4.1464 2.0453-4.55 0-0.40364 2.1964-4.0984 4.8808-8.2105l4.8808-7.4766-1.8571-6.6973c-1.0214-3.6835-2.0814-6.9217-2.3556-7.1958-0.7657-0.76571-4.5883 8.7294-5.5494 13.785-0.47059 2.475-1.2766 5.625-1.7912 7-0.51457 1.375-1.266 4.75-1.6699 7.5-0.40388 2.75-1.135 5.2483-1.6246 5.5518-0.48963 0.30348-1.3398 2.922-1.8892 5.819-0.54941 2.897-2.6028 8.647-4.563 12.778-3.0746 6.4792-3.4275 7.9459-2.5696 10.681 2.5765 8.2139 1.5498 11.16-5.905 16.945-4.77 3.65-16.99 17.89-16.99 19.74 0 0.51579-1.5168 2.6266-3.3706 4.6907-3.3554 3.736-9.6128 14.531-9.6478 16.644-0.0101 0.61008-3.4366 5.3842-7.6144 10.609-4.1778 5.225-8.107 10.212-8.7316 11.082-0.62457 0.87021-6.0856 5.4909-12.136 10.268-18.989 14.995-21.111 18.584-15.463 26.15 2.2011 2.9484 3.1158 12.881 1.9455 21.125-2.4754 17.438 23.311 48.792 38.576 46.904 8.437-1.0434 20.498 6.2535 22.476 13.598 1.6067 5.9667 6.4339 7.1661 12.65 3.143 2.0181-1.3062 16.085-3.1797 24.35-3.243 14.607-0.112 27.33 21.455 28.681 48.616 0.77808 15.638-7.9207 17.042-34.048 5.4934-3.04-1.34-6.89-2.14-10.36-2.14h-5.5256l-8.2548-8.5c-8.7208-8.9798-10.312-9.6972-15.528-7.0002-11.09 5.74-35-2.28-35-11.74 0-2.17-9.42-17.38-13.48-21.76-6.7589-7.3031-12.069-14.138-15.473-19.916-4.1253-7.0017-14.37-18.512-18.959-21.302-6.7535-4.1056-14.705-12.559-16.047-17.06-0.69237-2.3217-3.0097-7.2248-5.1497-10.896-2.14-3.68-3.89-7.29-3.89-8.03 0-0.74416-0.7105-2.3674-1.5789-3.6072-6.7812-9.6815-6.1727-21.7 1.9475-38.463 3.0649-6.3273 6.4678-13.776 7.5621-16.552 1.6759-4.2518 11.545-24.031 15.826-31.72 1.7782-3.1932 0.5908-5.4561-2.863-5.4561-2.8866 0-17.575-6.5688-20.729-9.2702-4.6617-3.9927-5.6308-3.2865-12.722 9.2702-2.64 4.675-6.2373 10.75-7.9941 13.5-4.717 7.384-8.9855 16.225-11.361 23.533-1.1564 3.5569-3.8795 10.517-6.0512 15.467-2.1718 4.95-5.6106 13.275-7.6419 18.5-2.0312 5.225-4.9215 12.2-6.4228 15.5-4.2158 9.2668-5.7678 14.848-8.3414 30-1.3079 7.7-3.2247 15.8-4.2596 18-2.6808 5.6991-15.398 24.75-17.563 26.311-2.3591 1.7001-4.8047 6.4671-4.8172 9.3896-0.005 1.2648-1.1775 4.7747-2.6048 7.7997-4.5159 9.5711-12.366 33.046-12.378 37.015-0.004 1.3832-1.4629 5.4332-3.2416 9-2.6667 5.3476-3.2071 7.5375-3.0807 12.485 0.0843 3.3 0.24892 10.352 0.36582 15.671l0.21254 9.6708-3.8818 4.7391c-4.3471 5.3071-10.421 8.5614-14.468 7.7519-8.4522-1.6904-10.184 9.3209-2.3173 14.733 5.1404 3.5367 5.1188 3.3664 1.982 15.605-4.6691 18.217-8.2243 20.69-31.078 21.613-8.6576 0.3497-13.393 0.087-17-0.9425zm14.828-6.0765c0.45563-0.264 2.6334-4.3692 4.8394-9.1226s4.9212-10.576 6.0337-12.94c3.1476-6.6871-6.072-12.897-11.225-7.5599-4.2068 4.3571-12.702 27.778-10.875 29.98 1.1318 1.3638 8.6698 1.1233 11.226-0.3581zm-18.882-14.6c3.055-5.7 5.554-11 5.554-11.8 0-4.2813 5.7802-8.0351 11.268-7.3179 12.4 1.6202 19.494 0.1523 18.212-3.7683-2.5633-7.8389-0.34168-15.482 5.9353-20.42 3.1359-2.4667 3.3342-3.9541 1.1206-8.4038-2.7298-5.4872-1.6527-7.0091 4.7022-6.6435 6.1962 0.35643 7.6416 3.1722 3.753 7.3113-4.1876 4.4575-0.90681 7.9414 5.1254 5.4428 5.4025-2.2378 7.8801-8.2093 7.8996-19.039 0.0178-9.9015 0.95635-14.17 8.4466-38.412 2.0392-6.6 4.5203-14.925 5.5135-18.5 2.9906-10.764 7.7864-20.065 13.406-26 7.6341-8.0621 14.209-23.559 20.519-48.363 2.1405-8.4135 5.0005-17.511 6.3557-20.217 1.3552-2.7059 3.4945-8.0699 4.7541-11.92 1.2596-3.85 4.4382-11.603 7.0636-17.228 7.5117-16.096 10.062-36.508 7.2633-58.13-1.9538-15.093-0.54717-17.788 5.7597-11.036l2.9012 3.1058 0.0137-2.8558c0.0365-7.6246 3.9352-11.526 8.9957-9.001 12.722 6.3465 13.75 1.9518 2.1728-9.2912-15.209-14.771-24.962-30.302-29.512-46.996-1.4948-5.485-3.2443-9.8094-4.1805-10.333-8.5086-4.7616-11.486-11.379-9.4236-20.942 1.5123-7.0099 1.3987-8.9883-0.7549-13.155-1.7137-3.3159-3.9694-11.322-5.8395-20.726-0.72067-3.6239-1.9507-8.1239-2.7333-10-0.78266-1.8761-1.98-5.7364-2.6606-8.5784-2.9134-12.164-6.0761-10.047-12.2 8.1673-2.2587 6.7181-2.8752 16.256-1.3331 20.627 0.81454 2.3086 2.1412 10.312 2.948 17.785 0.80689 7.4733 1.9439 17.638 2.5267 22.588 0.58278 4.95 1.088 10.575 1.1226 12.5 0.14601 8.1074 1.5656 10.922 5.2107 10.33l3.3113-0.53735 3.104 7.8536c1.8681 4.7267 2.9014 8.8573 2.5952 10.374-0.36609 1.8139 0.35669 3.61 2.5772 6.4041 1.6973 2.1358 4.5089 6.8514 6.2479 10.479 1.7391 3.6277 4.681 8.2133 6.5378 10.19l3.3758 3.5944-3.551 4.2502c-1.94 2.29-3.54 4.3-3.54 4.43 0 0.12651-1.5479 4.6179-3.4397 9.9808s-3.2175 10.33-2.946 11.037c0.7589 1.9777-4.361 19.118-7.6668 25.667-1.6211 3.2115-2.9475 6.7568-2.9475 7.8784 0 1.1217-0.86593 3.947-1.9243 6.2785s-2.2246 5.7266-2.5917 7.5448c-0.81176 4.0208-4.0427 4.1594-3.8885 0.16687 0.18631-4.8244 4.3092-22.525 6.0495-25.973 1.1256-2.2296 1.8178-6.0408 1.907-10.5 0.12627-6.3146 1.7811-23.466 3.1357-32.5 3.1987-21.332 0.13115-34.775-7.2947-31.967-2.6476 1.0011-4.8205 9.2-6.3518 23.967-0.59886 5.775-1.5276 13.65-2.0639 17.5s-1.3988 16-1.9166 27c-1.211 25.723-4.0624 40.006-10.881 54.5-6.165 13.106-7.5674 20.664-3.9299 21.18 1.8272 0.2595 2.3588 1.1346 2.8288 4.6565 0.40892 3.0642 1.4614 5.1618 3.5863 7.1477 5.1988 4.8587 5.7622 7.6255 2.9566 14.521-4.4676 10.981-7.1328 10.151-8.0483-2.5059-1.619-22.383-7.5032-20.931-7.5515 1.864-0.0255 12.055-2.4307 23.106-10.128 46.534-2.6919 8.1937-4.8944 15.504-4.8944 16.246 0 2.9519-4.5833 14.475-10.284 25.856-8.9671 17.902-11.356 23.152-14.786 32.5-1.7157 4.675-3.7858 10.3-4.6003 12.5-0.81452 2.2-3.3138 6.432-5.554 9.4045-4.417 5.86-3.886 8.1 1.911 8.1 1.27 0 2.309 0.45 2.309 1 0 0.57027-2.972 1-6.916 1-8.0196 0-10.286 1.9781-15.466 13.5-1.4836 3.3-4.0297 8.6182-5.6579 11.818-7.0107 13.778-0.96656 12.219 6.4852-1.6733zm40.984-69.35c0.7391-2.0625 3.4771-8.25 6.0845-13.75s5.1018-11.125 5.543-12.5c0.44128-1.375 2.1998-6.1 3.908-10.5 6.3844-16.446 8.3573-22.283 11.154-33 1.5788-6.05 2.8722-12.864 2.8742-15.143 0.002-2.6291 0.51604-4.3396 1.4059-4.6811 1.9877-0.76276 2.5978 0.17443 2.5978 3.9908 0 4.2363 1.9596 4.3585 5.3466 0.33333 4.1705-4.9563 6.3791-3.0046 3.2203 2.8457-2.78 5.15-6.56 14.41-6.56 16.07 0 0.92354-0.40781 2.1067-0.90624 2.6292-1.7364 1.8202-9.8238 27.952-13.137 42.45-0.43998 1.925-1.4904 5.3-2.3343 7.5-0.84388 2.2-1.5607 5.8-1.593 8-0.13854 9.4509-5.22 12.401-6.0292 3.5-0.65644-7.2208-2.4163-7.1509-6.2923 0.25-3.6658 6.9994-7.6014 8.4916-5.2752 2zm43.57-120.59c0-0.73663 1.575-2.7725 3.5-4.5242 4.0314-3.6685 4.8927-12.976 2.0635-22.298-2.4072-7.9318 0.0408-18.793 3.9365-17.465 0.55 0.18748 0.89838 2.6953 0.77417 5.573-0.12421 2.8776 0.65546 9.7784 1.7326 15.335 2.2901 11.814 1.6129 15.859-3.5756 21.36-3.2563 3.4527-8.4312 4.692-8.4312 2.0191zm26-31.05c0-2.4142 1.1237-8.6017 2.4972-13.75 1.3734-5.1483 4.3011-18.116 6.506-28.817 4.0831-19.816 5.0137-22.427 7.2112-20.23 3.7871 3.7871-3.5177 39.754-12.576 61.919-2.62 6.4-3.64 6.65-3.64 0.88zm320.75 195.9c2.4369-0.70046 2.5164-0.95266 2.2707-7.2049-0.15348-3.9058 1.4755-8.4501 5.4872-15.307 2.1075-3.6022 1.9899-9.2427-0.18391-8.8233-2.0858 0.40238-11.542 17.701-14.274 26.112-1.3838 4.2605-0.0958 7.1224 2.8412 6.3132 0.88485-0.24377 2.6213-0.73426 3.8588-1.09zm-22.267-4.4787c1.3843-2.7317 2.5244-5.5442 2.5336-6.25 0.009-0.70578 1.8017-4.8832 3.9832-9.2832 4.7152-9.51 5.0903-12.5 1.5681-12.5-3.2362 0-13.342 17.09-16.995 28.741-2.0813 6.6384 5.4919 6.0366 8.9096-0.70781zm42.258-30.852c0.82596-0.52455 1.4247-4.9358 1.7905-13.192 0.64001-14.444 0.28918-13.678 5.3445-11.656 6.8549 2.7428 14.092-6.4682 14.114-17.963 0.006-3.3609 0.89075-7.0535 2.5653-10.711 1.4055-3.0701 3.1571-9.312 3.8923-13.871 1.2872-7.9814 3.0093-13.755 6.0969-20.44 0.80042-1.7331 1.4553-3.6063 1.4553-4.1627 0-0.55637 1.575-3.4031 3.5-6.3261s3.5-5.8604 3.5-6.5275c0-0.66717 2.25-4.1486 5-7.7366 2.75-3.5879 5-6.8478 5-7.244 0-0.39629 0.94332-2.7751 2.0963-5.2863 1.1529-2.5111 2.6949-5.9157 3.4266-7.5657 0.73169-1.65 3.6356-7.8666 6.4531-13.815 8.1845-17.278 8.1826-15.992 0.024-16.905-4.6189-0.51723-4.281-15.154 0.46266-20.039 2.0038-2.0633 3.5373-4.6565 3.5373-5.9818 0-4.5998 4.0407-18.147 7.2076-24.164 3.2888-6.2492 9.1703-28.618 7.8673-29.921-1.4102-1.4102-6.0059 4.3321-6.0432 7.551-0.0174 1.4992-0.92992 4.1992-2.0279 6s-1.998 4.5653-2 6.1434c-0.002 1.578-1.5787 5.4619-3.5037 8.6308s-3.515 6.3778-3.5333 7.1308c-0.0428 1.7612-3.4564 5.8692-4.877 5.8692-1.5684 0-1.2829-4.1605 0.44209-6.4411 0.80751-1.0676 1.4682-3.7984 1.4682-6.0685 0-5.8525 2.4072-13.172 6.2449-18.99 1.814-2.75 3.8688-6.9115 4.5662-9.2478 1.5052-5.0428 7.0794-10.834 7.2207-7.5022 0.31569 7.4446 4.894 3.8648 7.9933-6.25 1.1797-3.85 2.818-8.9101 3.6406-11.245 0.85385-2.4233 1.2246-5.4784 0.86406-7.1201-0.50506-2.2995-0.24818-2.9757 1.2825-3.376 3.0147-0.78837 7.7413-11.283 6.5751-14.599-1.138-3.2358-2.8458-3.4825-2.9997-0.43324-0.0618 1.2247-1.9886 4.1497-4.2818 6.5-4.9677 5.0914-6.105 8.3222-3.5797 10.169 2.0388 1.4908 1.3538 6.6045-0.88476 6.6045-0.72624 0-1.8658 1.0125-2.5324 2.25-4.1429 7.6913-4.7808 9.2895-4.356 10.914 0.97443 3.7262-0.7015 5.4895-2.2962 2.4158-2.0278-3.9086-1.8363-5.7416 1.043-9.9845 1.375-2.0262 2.5-4.014 2.5-4.4173 0-0.40334 0.93032-1.5299 2.0674-2.5035 2.1235-1.8182 2.1921-3.7545 0.15701-4.4329-0.63284-0.21095-1.441 0.77343-1.7959 2.1875-0.35491 1.4141-1.2715 2.571-2.0369 2.571-1.822 0-1.8066-3.9035 0.0182-4.6037 1.948-0.74753 2.859-5.0256 1.5793-7.4168-1.4142-2.6424-0.22424-4.7153 7.0838-12.34 4.8047-5.0132 5.8976-6.7808 5.9597-9.639 0.0913-4.1985 6.7793-16.34 9.2644-16.819 2.3029-0.4435 2.4177 6.9807 0.13717 8.8734-2.5426 2.1102-4.5868 6.8886-3.8884 9.0892 1.1527 3.6319 6.0538-2.4775 12.55-15.644 3.2563-6.6 7.1886-14.25 8.7385-17 7.5281-13.357 12.06-22.453 13.453-27 0.8425-2.75 2.9076-9.5 4.589-15 7.2465-23.703 10.139-58.591 6.301-76-0.7275-3.3-2.0172-9.15-2.8661-13-1.9848-9.002-5.8816-18.926-9.4235-24-1.5358-2.2-4.0296-6.025-5.5416-8.5-11.72-19.185-47.601-48.19-63.124-51.027-25.29-4.63-38.14-2.94-30.73 4.02 1.375 1.2918 2.5 3.1151 2.5 4.0519 0 0.93678 0.675 2.2634 1.5 2.9481 3.8359 3.1835-0.0435 6.8845-5.1724 4.9344-10.298-3.9152-25.291-0.71849-39.828 8.4919-3.85 2.4393-8.8 4.7452-11 5.1242-14.124 2.4333-13.277 11.884 2.3 25.65 13.354 11.802 18.827 37.809 11.821 56.168-3.4354 9.0026-3.4115 11.222 0.12873 11.934 5.0894 1.0245 6.5759 5.3997 3.8404 11.304-1.4837 3.2024-2.1387 6.11-1.838 8.1588 0.32745 2.231-0.29215 4.479-2.0713 7.5148-1.7413 2.9713-2.2517 4.7849-1.6251 5.7752 1.5972 2.5244 1.0216 5.5448-1.6269 8.5381-3.13 3.54-4.43 6.6-4.43 10.43 0 1.5898-1.1243 4.5472-2.4984 6.5721s-2.9533 5.3712-3.5094 7.4362c-0.55605 2.065-2.6943 5.4938-4.7516 7.6196-7.2445 7.4856-7.5232 7.9549-6.1956 10.436 1.8752 3.5038-21.877 25.417-24.6 22.695-1.0191-1.0191 5.7759-12.241 10.625-17.546 3.8501-4.2126 4.9827-6.1653 4.7672-8.2191-0.21503-2.05 0.96259-4.0908 4.9272-8.5391 4.6154-5.1784 5.0456-6.0267 3.7706-7.4356-1.271-1.4045-0.97865-2.1715 2.5021-6.5647 4.1098-5.1871 4.7492-7.2878 2.8087-9.2282-0.87183-0.87183-0.48969-2.0247 1.5634-4.7164 2.7939-3.663 3.3552-5.8666 2.1888-8.5928-0.42025-0.98222 0.82989-3.7693 3.3641-7.5 2.556-3.7627 4.0338-7.0686 4.0353-9.0272 0.001-1.6996 1.3442-5.5246 2.9843-8.5 4.4017-7.9856 3.8966-11.603-0.90634-6.4902-11.764 12.522-23.948 0.16385-17.877-18.132 5.7793-17.416 5.0827-38.084-1.5349-45.543-1.7399-1.961-4.1834-4.7427-5.4299-6.1816-6.7601-7.8038-12.124 13.748-9.4424 37.937 0.62545 5.6411 0.66316 12.546 0.10104 18.5-0.49325 5.225-1.3099 14.482-1.8147 20.572-1.7094 20.618-6.7336 32.147-17.897 41.07l-3.3197 2.6534 0.70221 9.9047c0.46516 6.5611 0.27389 12.409-0.56656 17.322-1.1706 6.8431-1.1128 7.7874 0.74585 12.198 3.5404 8.4008 3.659 11.555 0.65735 17.479-5.8281 11.501-3.8876 26.145 3.2279 24.359 11.59-2.91 31.38-15.18 31.38-19.46 0-0.64169 0.67242-1.4247 1.4943-1.7401 0.82184-0.31537 1.2453-0.97625 0.94098-1.4686-0.3043-0.49237 0.26078-0.8973 1.2557-0.89985 4.62-0.01 26.31-30.97 26.31-37.55 0-0.39457 1.7463-4.3685 3.8807-8.831s4.9092-11.264 6.1663-15.114c4.3231-13.24 20.63-38.5 24.854-38.5 2.2127 0 0.96405 2.675-4.9012 10.5-3.298 4.4-5.9972 8.5686-5.9982 9.2636-0.00099 0.69496-0.42233 2.045-0.93632 3-0.514 0.95504-2.34 6.2364-4.0577 11.736-3.8068 12.189-7.2099 20.914-11.506 29.5-1.7888 3.575-4.3112 8.975-5.6053 12s-4.2743 8.425-6.6226 12c-7.4038 11.271 2.1492 26 16.863 26 14.466 0 23.018 40.96 18.394 88.102-2.0082 20.476-1.6522 43.977 0.73316 48.398 0.89011 1.65 1.9822 5.7 2.4269 9 0.81427 6.0425 4.1957 8.2814 6.3814 4.2252 1.8628-3.4569 9.6536-11.573 11.177-11.644 2.4686-0.11481 2.1723 2.1733-0.62128 4.7977-1.3042 1.2252-3.0715 3.6662-3.9273 5.4243-2.4967 5.1292-9.4843 21.03-10.115 23.017-2.6612 8.3857-6.0148-0.075-7.1625-18.07-1.4915-23.384-5.2962-11.605-6.2828 19.45-0.4404 13.863-1.1194 22.573-1.8269 23.432-1.2 1.45-9.31 25.39-9.31 27.48 0 0.67993-1.8366 4.7568-4.0813 9.0597-5.8565 11.226-7.1218 13.346-9.887 16.567-3.0528 3.5559-6.9376 12.367-6.9915 15.857-0.0221 1.4304-0.45254 3.9054-0.95656 5.5-2.4211 7.6598-2.2189 15.397 0.42866 16.404 5.218 1.9839 2.6957 5.5148-4.5782 6.409-13.598 1.6717-15.093 7.2691-2.0952 7.8446 4.2136 0.18657 9.0111 0.42289 10.661 0.52515 1.65 0.10227 3.5584-0.1687 4.2409-0.60215zm5.8149-34.091c-0.98273-1.5901 0.59319-4.1159 3.5087-5.6236 4.0037-2.0704 4.7022-0.0993 1.258 3.5498-2.9829 3.1604-3.8594 3.5417-4.7667 2.0738zm8.8011-24.84c0.33687-2.0625 2.4194-8.4738 4.6278-14.247 2.21-5.77 4.02-10.93 4.02-11.46 0-1.5396 6.4233-13.534 7.25-13.538 2.0143-0.01-0.72836 11.783-4.8019 20.647-0.79644 1.7331-1.4481 3.6636-1.4481 4.2898 0 0.62629-0.9 2.9028-2 5.059s-2 4.6563-2 5.5558c0 2.0442-3.7691 7.4442-5.1959 7.4442-0.66678 0-0.83261-1.3905-0.44723-3.75zm16.65-43.03c0-1.0702 1.35-3.6446 3-5.7208 1.6855-2.1209 3-3.1112 3-2.26 0 0.83328-0.64829 2.0531-1.4406 2.7107-0.79235 0.6576-1.5798 2.3655-1.75 3.7953-0.36 3.06-2.81 4.34-2.81 1.47zm17.648-138.98c-1.3154-2.1284 2.3925-7.6278 4.0354-5.9849 1.4998 1.4998 1.4958 1.8219-0.0525 4.1848-1.6843 2.5706-3.1088 3.2144-3.9829 1.8001zm3.82-17.49c0.35978-2.8875 1.0651-6.375 1.5674-7.75 1.4793-4.0495 2.6475-18.558 1.6247-20.179-0.61595-0.9765-0.31116-2.7506 0.91733-5.3394 1.0119-2.1324 1.7174-5.2982 1.5677-7.0351-0.18037-2.0936 0.89935-5.3276 3.2033-9.5947 3.307-6.1248 3.3994-6.5619 1.9065-9.0222-2.1878-3.6056 1.408-9.3238 13.358-21.242 10.808-10.779 18.984-23.684 9.0423-14.273-3.8912 3.6839-8.824 7.6842-9.5062 7.7091-0.35594 0.013-1.971 1.813-3.589 4s-3.2688 3.9764-3.6684 3.9764c-0.39964 0-1.7204 1.6079-2.935 3.5732-1.4722 2.3821-2.5417 3.2399-3.2084 2.5732-1.3596-1.3596 1.9949-6.6074 7.37-11.529 3.8035-3.4829 4.0675-4.0094 2.562-5.1102-2.408-1.7608-2.4932-1.6148 6.8089-11.667 4.668-5.0442 10.181-11.808 12.25-15.031 2.0695-3.2227 4.7851-7.4578 6.0347-9.4114 4.12-6.45 10.22-18.54 10.22-20.26 0-2.04 2.73-6.14 4.09-6.14 3.0635 0 1.8562 4.2789-5.2808 18.717-2.5149 5.0876-2.9561 6.9506-2.428 10.253 0.80045 5.0057-1.2024 10.19-5.8064 15.03-3.2913 3.4598-5.1164 8.546-3.4387 9.5829 2.0637 1.2754-0.5058 4.561-14.722 18.824-16.56 16.616-20.743 28.184-4.5529 12.593 11.859-11.421 12.037-7.9674 0.2257 4.3892-9.95 10.4-10.09 10.56-10.09 11.28 0 0.36919-0.74724 1.497-1.6605 2.5061-4.2027 4.644 2.7295 2.5998 7.558-2.2287 2.4337-2.4338 3.5083-2.9428 4.3774-2.0738 0.86902 0.86902-0.74174 3.0564-6.5615 8.9106-4.2423 4.2674-7.7133 8.2563-7.7133 8.8642 0 0.60799-0.675 1.6656-1.5 2.3503-0.825 0.68469-1.5 1.8648-1.5 2.6224 0 0.75766 0.675 1.3776 1.5 1.3776s1.5-0.45 1.5-1 0.675-1 1.5-1c1.968 0 1.8951 0.8021-0.5 5.5-1.1 2.1576-2.016 5.5152-2.0354 7.4614-0.0195 1.9462-0.67854 4.6636-1.4646 6.0386-0.78602 1.375-1.4451 3.7255-1.4646 5.2232-0.04 3.09-3.97 11.78-5.33 11.78-0.49557 0-0.6028-2.3416-0.24042-5.25zm-107-43.79c-0.29095-0.47077 0.45496-1.3825 1.6576-2.0262 1.2026-0.64362 3.5777-2.4341 5.278-3.9788 3.85-3.51 10.36-7.96 11.63-7.96 0.53 0 0.96-0.68 0.96-1.5 0-0.825 0.675-1.5 1.5-1.5 2.501 0 1.6861 2.4863-1.6148 4.9268-1.7132 1.2666-3.8507 2.9271-4.75 3.69-7.6531 6.4923-9.93 8.1464-11.884 8.6342-1.237 0.3087-2.4871 0.17609-2.778-0.29468zm72.479-4.5139c-2.2963-2.7668-10.228-6.8445-14.396-7.4009-5.5464-0.74041-5.6514-2.9805-0.58555-12.487 2.245-4.2128 4.3544-9.6482 4.6875-12.079 0.62161-4.5351 4.1704-8.318 6.47-6.8967 1.2782 0.78996 0.37038 9.4646-1.7066 16.308-1.974 6.5038-2.0128 6.3885 4.109 12.231 5.8281 5.5623 7.7335 9.4673 5.3546 10.974-1.9261 1.2198-2.454 1.1326-3.9332-0.64966zm-63.95-9.59c0-1.6708 9.2218-9.8141 11.143-9.8399 0.90366-0.0121 1.902-0.69704 2.2186-1.522 0.54126-1.4105 3.6384-2.1858 3.6384-0.9108 0 0.88546-8.9535 9.4108-9.8834 9.4108-0.44364 0-1.6211 0.9-2.6166 2-1.9776 2.1853-4.5 2.6684-4.5 0.86196zm87-12.081c0-3.0993 0.57069-4.8254 2-6.0492 1.1-0.94185 2-2.3919 2-3.2222 0-0.83039 0.46114-1.5098 1.0248-1.5098 0.56361 0 1.4525-1.125 1.9752-2.5 0.52277-1.375 1.4116-2.5 1.9752-2.5 0.56361 0 1.0248-0.8449 1.0248-1.8776 0-1.0326 0.675-2.4378 1.5-3.1224 1.6744-1.3897 2.0586-6 0.5-6-0.55 0-1 0.57589-1 1.2798 0 0.70387-3.2795 4.6414-7.2879 8.75-4.0083 4.1086-8.4438 9.6987-9.8565 12.422-1.4128 2.7237-3.0832 5.1237-3.7121 5.3333-2.4471 0.81571-0.94827-3.9283 3.1065-9.8324 2.3375-3.4036 5.003-7.3252 5.9234-8.7147 2.3618-3.5657 9.112-10.166 10.437-10.206 2.2441-0.0665 8.2886-6.8892 11.188-12.629 1.6406-3.2472 3.9207-6.7511 5.0669-7.7862 3.5349-3.1923 6.0066-9.6421 5.7858-15.097-0.12739-3.1481 0.45146-6.2604 1.5738-8.4618 0.97642-1.9152 1.5078-4.3251 1.1807-5.3554-0.36323-1.1445 0.17944-2.7156 1.3948-4.0382 1.0941-1.1907 2.2156-3.9649 2.4921-6.1649 0.27653-2.2 1.0363-5.8 1.6884-8 0.65209-2.2 1.5164-6.1296 1.9207-8.7324 0.44577-2.8698 1.8945-6.2152 3.681-8.5 1.6202-2.0722 4.2894-5.7036 5.9316-8.0697 7.4132-10.682 7.7614-12.129 4.0166-16.698-1.3618-1.6613-2.4751-2.3818-2.495-1.6147-0.0558 2.1507-5.0707 6.3153-6.8038 5.6502-1.3129-0.50379-1.2477-0.90552 0.45623-2.8117 2.9128-3.2585 5.0298-8.9845 3.5092-9.4914-1.9161-0.63869-1.3939-3.2105 1.3024-6.4149 1.375-1.6341 2.5-3.7364 2.5-4.6718 0-2.4493 2.8378-6.1453 4.2904-5.5879 2.7085 1.0393 4.0535 6.3701 2.6672 10.571-0.99063 3.0017-1.0208 4.208-0.12749 5.1013 1.7128 1.7128 1.4428 3.5781-1.0184 7.0345l-2.1884 3.0733 2.1884 1.453c2.792 1.8538 2.7503 3.0216-0.29844 8.357-1.863 3.2604-2.3339 5.1827-1.8772 7.6634 0.47294 2.5689 0.14814 3.7412-1.4487 5.2289-2.2408 2.0876-3.786 9.438-2.8053 13.345 0.34013 1.3552-0.0462 3.6599-0.88221 5.2628-0.81804 1.5685-1.4901 4.2592-1.4935 5.9794-0.003 1.7202-0.68519 3.6911-1.5151 4.3799-0.82992 0.68877-1.8025 3.0878-2.1612 5.3313-0.4918 3.0756-1.8426 5.2693-5.491 8.9178-4.6302 4.6302-4.8388 5.0797-4.8388 10.425 0 7.5997-1.5973 12.349-5.6355 16.757-1.8705 2.0418-4.3114 5.497-5.4242 7.6782-1.1128 2.1813-3.7859 5.7286-5.9403 7.883s-4.8237 5.6942-5.9318 7.8663-2.4362 4.1033-2.9514 4.2915c-1.15 0.41-9.12 15.68-9.12 17.45 0 0.69574-0.45 1.5431-1 1.883-0.60795 0.37573-1-1.0822-1-3.7187zm-14.98-15.03c0.0122-1.2375 0.90222-3.375 1.9778-4.75 2.3675-3.0267 2.4892-4.802 0.48103-7.021-1.383-1.5282-1.0069-2.1947 4.2-7.4433 4.8742-4.9132 5.7156-6.3018 5.6963-9.4003-0.0125-1.9995 0.25061-3.8605 0.58457-4.1355 1.0349-0.8522 7.8775-11.553 9.0923-14.22 0.80434-1.7653 0.84231-3.1051 0.12594-4.4437-0.83073-1.5522-0.18527-3.2224 3.3971-8.7902 4.2998-6.6829 5.4651-10.784 3.4227-12.046-1.7741-1.0964-1.0707-3.6555 1.9507-7.0966 3.8355-4.3684 4.8536-9.527 2.5683-13.015-1.068-1.63-1.3529-2.9548-0.76226-3.5454 0.59061-0.59061 0.55576-2.635-0.0933-5.4713-0.91764-4.0101-0.76712-5.021 1.3151-8.8327l2.3513-4.3043-2.1384-2.7185c-2.014-2.5604-2.047-2.8953-0.56716-5.7569 1.8634-3.6035 1.1182-12.898-1.1876-14.812-0.79-0.66-1.44-1.79-1.44-2.52 0-0.73033-0.74396-1.7442-1.6532-2.2531-1.4081-0.78799-1.4962-1.5441-0.59399-5.0983 0.90674-3.5723 0.80393-4.4181-0.71404-5.8745-0.9753-0.93577-2.0784-3.3889-2.4513-5.4514-0.37292-2.0625-1.0773-3.75-1.5653-3.75-1.2654 0-2.1825-3.4184-1.4378-5.3591 1.7307-4.5102 7.7475 0.42769 11.821 9.7014 1.9831 4.5147 2.3297 6.2844 1.5251 7.7878-1.08 2.018-0.40933 5.8699 1.022 5.8699 2.0228 0 4.2231 5.755 5.0812 13.29 0.51424 4.5155 1.2158 10.138 1.559 12.494 0.47078 3.2323 0.0811 5.5466-1.5869 9.424-1.973 4.5864-2.0746 5.5528-0.94377 8.9792 1.1403 3.455 1.0373 4.3304-1.0276 8.7391-1.5864 3.387-2.0841 5.739-1.6122 7.6192 0.4887 1.9472-0.072 4.2621-1.9739 8.1495-2.1406 4.3752-2.5324 6.2579-2.0172 9.6936 0.68572 4.5727-1.3437 9.4744-8.9185 21.541-1.8747 2.9863-3.1328 5.8758-2.7959 6.421 0.33697 0.54523 0.97407 0.0144 1.4158-1.1796 0.92656-2.5047 3.8675-2.9461 3.8675-0.58046 0 0.87478-1.9797 3.9123-4.3994 6.75-2.4226 2.8411-4.9058 7.0488-5.5263 9.364-0.6198 2.3125-2.1558 5.4625-3.4135 7-1.2576 1.5375-4.7109 6.508-7.674 11.045-5.6075 8.5869-7.002 9.7883-6.9646 6zm122.04 333.21c3.1384-1.6796 2.2968-4.6896-2.2276-7.9671-2.289-1.6582-4.7895-3.911-5.5567-5.0063-1.22-1.74-6.28-2.91-6.28-1.45 0 1.7698 4.3571 8.5111 7.5687 11.71 4.26 4.2434 3.9123 4.0981 6.4971 2.7148zm7.1055-13.62c2.8498-2.5791 2.2499-4.4056-3.8184-11.626-6.8515-8.1522-8.9352-8.5782-11.317-2.3138-2.3984 6.3081 10.471 18.161 15.135 13.94zm-253.67-3.34c1.3379-4.2153-0.22972-5.8287-6.2964-6.4802-3.137-0.33688-7.6131-1.0993-9.9468-1.6942-4.7122-1.2013-7.2568-0.0659-7.2568 3.2378 0 4.5325 22.151 9.1858 23.5 4.9366zm-38.027-3.3563c1.0865-0.79445 2.1068-3.1763 2.4632-5.75 0.47574-3.4358 1.0034-4.3604 2.4204-4.2408 1.3742 0.11596 1.6874-0.36724 1.2962-2-0.28367-1.1841-0.82708-3.9529-1.2076-6.1529-1.2232-7.0725-5.344-10.255-7.135-5.5097-3.6596 9.6954-23.538 4.367-29.81-7.9903-3.8263-7.5392-5.1994-8.2921-13.68-7.5005-7.31 0.68-11.82-1.72-11.82-6.3 0-0.48443-1.5189-1.9652-3.3753-3.2905-5.5465-3.9598-12.132-10.397-15.654-15.301-1.82-2.54-3.62-4.61-4.01-4.61-0.38368 0-1.8144-1.6875-3.1795-3.75-1.365-2.0625-3.667-4.875-5.1156-6.25s-2.6415-3.2969-2.651-4.2709c-0.0252-2.586 26.448 24.551 27.896 28.596 1.0073 2.813 6.922 7.9517 8.4693 7.358 2.1897-0.84026 2.0337-2.354-0.45783-4.4432-9.3921-7.8756-22.465-22.625-25.431-28.693-1.3571-2.776-3.8919-7.2345-5.633-9.9078l-3.1656-4.8606 1.5463-7.9838c1.5147-7.8203 1.4931-8.2091-1.0521-18.99l-2.5984-11.006 2.8291-5.4035c2.0739-3.961 5.5322-7.7294 12.955-14.116 14.512-12.487 23.597-23.503 30.431-36.899 7.5201-14.741 20.341-30.53 29.785-36.683 6.5921-4.2946 8.7705-8.5893 6.777-13.361-4.5917-10.99-1.9944-30.93 3.3936-26.054 4.61 4.1719 9.2786-15.268 4.8436-20.168-1.6321-1.8035-1.6416-2.2491-0.14437-6.7732 2.796-8.4483 2.5573-8.0506 3.6565-6.0927 1.2482 2.2234 3.3091 2.3025 2.4618 0.0945-0.37279-0.97148 0.15112-2.5208 1.268-3.75 1.0771-1.1853 2.4555-5.1332 3.1753-9.0945 0.69961-3.85 1.8808-8.7441 2.625-10.876 3.6864-10.56 1.2802-18.922-6.0594-21.056-11.799-3.4301-24.596-26.826-27.026-49.412-0.37535-3.4888-1.1383-7.5388-1.6954-9s-1.1927-6.7067-1.4124-11.657c-0.21975-4.95-0.90357-13.275-1.5196-18.5-3.919-33.24-4.274-34.465-19.048-65.728-9.5937-20.301-12.513-22.582-16.642-13.005-1.2408 2.8781-2.2533 5.6133-2.25 6.0781 0.005 0.69745-15.241 33.597-17.924 38.678-0.44241 0.8379-4.7714 9.3879-9.6201 19-4.8486 9.6121-10.942 21.302-13.54 25.977-5.0893 9.1566-5.639 11.029-4.4677 15.222 0.60001 2.1481 0.00063 4.0811-2.841 9.1625-2.77 4.95-3.6 7.58-3.6 11.34 0 3.2753-0.86751 6.632-2.6259 10.161-2.1035 4.2211-2.507 6.1372-2.0281 9.6308 0.35948 2.6227 0.0309 6.2448-0.82412 9.086-1.0208 3.3918-1.1303 5.2696-0.38815 6.6562 0.69852 1.3052 0.70863 2.794 0.0312 4.5909-1.9466 5.1632-2.3046 11.297-0.79408 13.602 2.3989 3.6612 1.7544 24.057-0.76017 24.057-1.9615 0-2.9317-2.5061-6.1946-16-0.79796-3.3-1.9511-8.025-2.5625-10.5-1.6292-6.5949-1.0223-19.296 1.78-37.25 1.3756-8.8141-5.0361-1.1952-17.497 20.792l-5.1244 9.0416 1.1677 10.958c0.70921 6.6559 1.7449 11.641 2.6378 12.696 1.262 1.4914 1.2895 2.7934 0.19415 9.1967-1.1121 6.5013-1.0706 10.733 0.18696 19.065 1.208 8.0036-5.871 2.2972-10.253-8.2651-2.3024-5.5495-4.2487-8.856-5.3375-9.068-2.0252-0.3942-8.6074 6.2094-8.6074 8.6354 0 3.8434 10.111 25.768 14.662 31.793 1.2856 1.7019 2.3375 3.7155 2.3375 4.4746 0 3.7484 23.519 24.003 34.317 29.553 16.5 8.4815 16.4 8.453 19.108 5.4604 2.9411-3.2499 1.691-6.3756-2.9254-7.3147-15.397-3.1322-46.036-22.856-43.038-27.706 0.67158-1.0866 9.5382 2.7595 9.5382 4.1374 0 0.4404 0.6737 0.80073 1.4971 0.80073 0.82341 0 3.1859 1.5047 5.25 3.3438 9.1827 8.1819 13.328 6.371 8.088-3.533-3.4033-6.432-6.3158-8.4278-7.4934-5.1347-3.5765 10.002-10.77 0.90955-12.331-15.585-0.81811-8.6472-0.73073-11.364 0.57385-17.841 0.89567-4.447 4.9246-1.7469 4.5994 3.0824-0.16912 2.5112 0.49605 4.3228 2.432 6.6235 1.4884 1.7689 3.0421 5.2367 3.5194 7.8555 0.47002 2.5787 1.592 5.1386 2.4934 5.6886 4.1817 2.5517 7.9442 6.3574 10.985 11.112 1.823 2.8498 4.8589 6.1358 6.7465 7.3024s4.105 3.1257 4.9276 4.3535c4.2424 6.3325 12.733 7.7668 14.085 2.3795 1.8228-7.2628 5.806-14.122 7.1408-12.296 2.8488 3.896-4.3204 26.48-13.316 41.947-10.352 17.8-12.141 21.149-14.258 26.702-3.2343 8.4828-15.338 32.239-18.342 36-9.2109 11.533-3.864 43.694 6.2096 37.351 2.8486-1.7938 2.4467-3.8242-1.7661-8.9222-2.2234-2.6906-4.0486-5.8002-4.0561-6.9103-0.008-1.1101-0.23837-2.9183-0.51301-4.0183-2.0076-8.041 7.3514-2.7996 15.433 8.6428 3.8114 5.3967 3.289 7.8963-2.0386 9.7535-3.9866 1.3898-2.3402 3.7634 5.0146 7.2294 2.5398 1.1969 5.6286 3.085 6.8639 4.1958 2.5758 2.3161 3.1405 2.0342 3.8587-1.9263 0.72001-3.9706 1.0477-4.0622 3.8223-1.0684 2.3942 2.5834 3.3569 18.222 1.2513 20.328-1 1-3.68-1.72-3.68-3.75 0-2.3687-2.9297-3.8908-5.5-2.8574-4.6568 1.8722-6.171 1.1236-8.9877-4.4436-3.8546-7.6186-9.8001-9.8791-8.0929-3.077 0.78355 3.1219 11.39 14.709 26.514 28.965 3.5008 3.3 8.1856 8.475 10.41 11.5 2.2249 3.025 6.3536 7.975 9.1748 11 6.8246 7.3175 13.677 16.469 16.473 22 1.2512 2.475 3.9024 6.5884 5.8917 9.1408s4.0669 5.3842 4.6169 6.2928c2.1465 3.5461 20.203 6.4733 22 3.5664 0.33992-0.55 3.1249-1 6.1888-1h5.5708l6.6202 6.9137c7.1271 7.4432 7.7725 7.7922 10.593 5.73zm-44.56-15.92c-1.4244-1.2201-3.8286-3.1858-5.3426-4.3683-3.4365-2.6839-3.158-5.9736 0.47349-5.5912 4.1779 0.43999 7.863 2.363 8.5249 4.4487 0.34783 1.0959 2.7253 2.9383 5.2833 4.0943l4.6508 2.1018-3 0.67983c-5.3869 1.2207-7.958 0.88927-10.59-1.3652zm-59.24-127.39c-2.2051-2.2051 3.0618-13.935 8.4848-18.897 6.963-6.3707 12.057-13.713 18.688-26.936 9.438-18.821 36.151-46.18 39.616-40.573 0.31505 0.50976-1.8356 3.7723-4.7791 7.25-2.9436 3.4777-7.7351 10.823-10.648 16.323-8.0829 15.262-13.098 21.721-29.206 37.614-11.868 11.709-15.307 15.735-17.304 20.25-2.3881 5.4-3.3917 6.428-4.8509 4.9689zm-8.67-33.66c0-2.1983 14.227-32.303 17.42-36.862 0.86886-1.2405 1.5858-2.9428 1.5931-3.7829 0.04-3.65 20.37-30.02 23.15-30.02 2.7336 0-0.20889 8.297-5.3114 14.977-3.6345 4.758-8.7148 13.025-9.3862 15.274-0.96762 3.2413-7.4152 14.895-9.5512 17.263-0.99891 1.1075-2.5281 3.7174-3.3981 5.7998-2.95 7.08-14.51 20.9-14.51 17.36zm83.58-52.92c-0.80883-1.2375-2.6052-4.8187-3.992-7.9582-1.7466-3.9543-3.4528-6.1899-5.5525-7.2757-1.68-0.87-3.04-2.06-3.04-2.66 0-0.5992-1.6494-2.6003-3.6654-4.4469-4.1435-3.7953-5.5765-11.166-3.5482-18.25 0.57673-2.0142 1.6068-5.6873 2.289-8.1623 1.5759-5.7171 3.563-9 5.4476-9 2.0448 0 1.8457 2.8538-0.52305 7.5-2.1663 4.2491-2.4924 7.1734-1.0534 9.4478 0.70925 1.1211 1.076 0.78254 1.625-1.5 1.0918-4.5391 3.3334-8.4478 4.8446-8.4478 1.3514 0 1.9091 2.1677 3.2162 12.5 0.49824 3.9385 1.2944 5.5606 3.75 7.6406 2.8418 2.4071 3.1194 3.1698 3.1395 8.6228 0.0121 3.2902 0.52201 6.6019 1.1332 7.3594 2.3649 2.931 3.512 11.973 1.8422 14.522-1.9418 2.9636-4.0296 3.0008-5.9218 0.10562zm-76.141-33.627c-6.7626-4.1239-10.461-10.922-12.415-22.818-0.64984-3.9571-1.8201-7.7247-2.6006-8.3724-1.88-1.55-1.82-4.93 0.08-4.93 0.825 0 1.5 0.83115 1.5 1.847s0.9322 2.9218 2.0716 4.2355c1.2776 1.4731 1.9004 3.2841 1.6249 4.7252-0.5035 2.6339 2.2356 4.1923 7.3687 4.1923 1.6142 0 3.8349 0.9 4.9349 2 2.3738 2.3738 5.5619 2.4965 13 0.5 9.7042-2.6047 10.494-1.3639 3.5 5.5-2.661 2.6116-4.5 5.3254-4.5 6.6408 0 1.4315-0.80206 2.4754-2.25 2.9286-1.2375 0.38733-3.522 1.7676-5.0767 3.0674-3.3959 2.839-3.3822 2.8381-7.2387 0.48637zm34.137-34.695c-2.2132-2.2132-1.9598-4.5137 0.92857-8.4286 1.375-1.8637 2.5-3.7212 2.5-4.1278 0-6.95 14.338-16.785 18.013-12.356 2.5882 3.1186 7.4428 0.95371 8.381-3.7375 1.52-7.63 16.6-18.25 16.6-11.69 0 2.7521-9.4807 13.574-12.571 14.35-2.1937 0.55058-2.4288 1.1282-2.4288 5.9681 0 3.6315-0.50206 5.7752-1.5578 6.6513-0.85677 0.71106-2.1687 2.7549-2.9153 4.542-1.6845 4.0316-4.1889 5.4165-11.081 6.1279-3.4328 0.3543-5.9938 1.2306-7.0692 2.4189-2.0575 2.2735-6.6703 2.4264-8.8049 0.2919zm-33.194-23.887c-0.30788-0.80232-0.062-2.967 0.54641-4.8105 0.74454-2.256 0.83672-6.4231 0.28194-12.747-0.45333-5.1671-0.56309-10.99-0.24392-12.939 0.31918-1.9496 0.27893-6.0197-0.0894-9.0447-0.56461-4.6366-0.3435-5.9635 1.4084-8.4523 1.8119-2.574 2.1073-4.6244 2.3055-16 0.21788-12.508 0.35459-13.275 3.3024-18.548 3.7412-6.6914 4.3268-10.682 1.0517-7.1664-2.13 2.29-3.95 2.13-3.95-0.33 0-0.76388 2.1929-5.4247 4.873-10.357 2.6802-4.9326 5.3858-10.439 6.0125-12.237 2.2188-6.3648 6.1145-8.5442 6.1145-3.4206 0 1.298 0.7412 3.6514 1.6471 5.2298 1.5269 2.6606 1.5276 3.1224 0.009 6.331-3.8673 8.17-5.5718 25.711-4.0407 41.584 0.63229 6.5549-1.2165 12.512-5.6209 18.111-1.5116 1.9217-2.0218 3.8801-1.8765 7.2025 0.1338 3.0589-0.5289 5.9841-2.0104 8.8738-3.356 6.546-5.8711 16.03-5.9632 22.485-0.10323 7.2359-2.1099 10.563-3.7668 6.2455zm374.3 314.45c4.9613-12.535 3.0672-38.483-2.1885-29.979-0.79986 1.2942-7.1925 3.9848-9.4675 3.9848-0.95291 0-3.598-2.1109-5.8779-4.6908-4.1481-4.694-4.8405-7.0361-4.318-14.606 0.24794-3.5922-1.4225-6.699-3.6124-6.7185-6.1849-0.0552-7.3321-7.3049-6.0931-38.506 1.724-43.416 1.1401-54.264-3.0928-57.457l-2.466-1.8601 2.006-3.8093c1.4383-2.7313 2.9859-4.0984 5.4686-4.8308 5.171-1.5256 5.6946-2.0879 7.397-7.9439 3.3631-11.568 0.80151-15.602-5.9989-9.4464-1.1354 1.0278-2.6424 1.8688-3.3489 1.8688-0.70643 0-2.8269 0.73194-4.7121 1.6265-3.9106 1.8557-9.6354 1.3524-12.327-1.0838-3.2407-2.9328-5.5262-1.9398-6.8398 2.9716-2.0234 7.5652-0.64097 9.3936 4.8716 6.4434 4.0956-2.1919 5.4068 0.0947 5.5756 9.7238 0.085 4.8502 0.63098 12.644 1.2132 17.318 0.58224 4.675 1.4785 11.875 1.9916 16 0.80412 6.4637 0.67311 8.1218-0.94813 12-2.1124 5.053-4.2962 58.472-2.5275 61.825 1.4566 2.761 5.9025 7.1752 7.2265 7.1752 0.6799 0 2.5666 1.1195 4.1927 2.4878s4.0231 2.8969 5.3267 3.397l2.3702 0.90925-2.8898 1.1314c-2.2596 0.88465-3.241 0.83935-4.5-0.20771-5.48-4.54-15.12-7.84-15.12-5.16 0 2.58 4.66 6.45 7.77 6.45 10.74 0 23.23 12.2 23.23 22.68 0 12.131 13.631 18.539 17.679 8.3107zm-50.16-73.529c0.20558-7.7192 0.8368-16.044 1.4027-18.5 2.6023-11.293-0.89865-22.325-5.6093-17.676-2.203 2.1743-2.2847 44.318-0.10285 53.038l1.2079 4.8278 1.3638-3.8278c0.81223-2.2796 1.515-9.5043 1.7376-17.863zm-332.53-139.01c0-0.85593-1.9125-2.4447-4.25-3.5306s-5.1473-2.5231-6.2439-3.1938c-5.214-3.1886-14.2-9.4112-16-11.079-1.1035-1.0228-4.3362-3.6004-7.1837-5.7278-2.8475-2.1275-5.4616-4.3281-5.809-4.8903-0.34-0.56-1.28-1.02-2.07-1.02-9.225 0 24.656 28.62 35.546 30.026 3.0324 0.39156 5.6259 0.77094 5.7634 0.84305 0.1375 0.0721 0.25-0.56918 0.25-1.4251zm271-5.0028c0-0.79 0.64-1.44 1.43-1.44 1.4968 0 3.1861-3.7146 2.1572-4.7435-2.1151-2.1151-8.4625 4.9871-6.5339 7.3109 1.3403 1.615 2.9441 1.0014 2.9441-1.1264zm-141.65-10.01c-3.5161-3.3161-3.5739-3.4952-2.8912-8.9588 0.7738-6.1932-0.13724-13.785-1.5495-12.912-3.136 1.9381-0.0758 23.611 3.5661 25.256 4.0337 1.8218 4.4965 0.0303 0.87469-3.3855zm134.37-3.2105c0.9493-1.4932 2.2993-3.0747 3-3.5145 0.70071-0.43983 1.274-1.4148 1.274-2.1667 0-0.75183 0.5175-1.5395 1.15-1.7503 0.6325-0.21083 0.97-0.91982 0.75-1.5755-0.68644-2.0459-6.398 2.2146-8.277 6.1742-0.94 1.98-2.14 3.61-2.67 3.61-0.52 0-0.95 0.92-0.95 2.04 0 2.6888 3.2372 1.0943 5.726-2.8204zm-10.71 2.03c0.007-0.4125 1.8068-2.682 4-5.0435 2.1931-2.3614 3.9875-4.576 3.9875-4.9212 0-0.3453 0.75437-1.4614 1.6764-2.4802 1.2685-1.4017 1.3951-2.1336 0.52021-3.0085-1.3846-1.3846-6.0852 0.74937-7.0204 3.1872-0.31991 0.83392-1.8404 3.3815-3.3789 5.6612-3.09 4.59-3.58 7.36-1.29 7.36 0.825 0 1.5056-0.3375 1.5125-0.75zm-4.1501-7.3902c2.83-3.1 5.14-6.33 5.14-7.17 0-0.83955 0.5625-1.7274 1.25-1.9729 0.72707-0.25967 0.87897-0.81746 0.3631-1.3333-0.51588-0.51587-1.0737-0.36397-1.3333 0.3631-0.24553 0.6875-0.97637 1.25-1.6241 1.25-0.6477 0-2.2977 1.4065-3.6667 3.1256s-3.9515 4.6291-5.739 6.4667c-3.6527 3.7551-4.4005 6.7867-1.3876 5.6255 1.0243-0.39478 4.1743-3.2559 7-6.358zm-73.935 4.7276c0.90575-1.0914 0.81988-2.2563-0.37755-5.1221-0.84-2.04-1.54-4.76-1.54-6.03 0-3.881-1.7045-3.6406-2.3614 0.33297-1.7156 10.379 0.34327 15.572 4.2888 10.818zm-23.42-3.1921c7.2302-1.0016 5.8285-3.0895-2.5074-3.7349-6.4725-0.50108-11 0.93956-11 3.5002 0 2.2293-0.79203 2.2155 13.507 0.2347zm87.82-1.65c2.71-2.52 7.68-9.57 7.68-10.89 0-3.2642-6.2622 1.0244-10.568 7.237-3.7887 5.4671-1.7897 7.9998 2.8829 3.6525zm-285.08-12.5c0.21155-0.9625-0.78634-3.325-2.2175-5.25-6.2689-8.4319-14.036-26.583-15.442-36.085-1.7593-11.893-3.6188-15.035-7.628-12.889-3.7177 1.9896-5.124 12.512-1.9356 14.483 0.43127 0.26654 1.3227 2.8485 1.981 5.7377 1.7729 7.7811 9.2859 22.748 14.464 28.814 2.4973 2.9256 4.5405 5.6838 4.5405 6.1291 0 1.7097 5.8493 0.82804 6.238-0.94023zm216.51-5.3744c-0.97-1.68-1.75-4.1-1.75-5.4 0-1.298-0.51046-2.6754-1.1344-3.061-1.1286-0.69753-1.0709 0.0151 0.65486 8.083 1.187 5.5493 1.4272 5.9523 2.7556 4.6238 0.94746-0.94746 0.83166-1.8709-0.53278-4.2483zm239.58-11.1c7.69-24.33 10.67-46.78 6.2-46.78-3.354 0-7.4824 16.654-8.9569 36.132-0.57211 7.5577-8.5722 10.647-8.5722 3.3101 0-1.8284-0.50922-3.6391-1.1316-4.0237-0.8191-0.50623-0.96959 1.0654-0.54494 5.691 2.1029 22.907 6.8966 24.996 13.007 5.668zm-269.53 0.97405c-0.39974-5.3901-1.9136-5.6804-4.6093-0.88408-4.0951 7.2863-2.5374 13.319 2.0992 8.1296 2.2858-2.5582 2.7568-3.918 2.5101-7.2456zm-0.49-22c-0.27525-2.3375-0.94506-5.825-1.4885-7.75-0.54341-1.925-1.3503-7.775-1.793-13-0.44273-5.225-1.3793-11.3-2.0812-13.5-0.70196-2.2-1.351-7.4864-1.4424-11.748-0.17186-8.0168-0.91856-10.258-2.5736-7.7234-1.0326 1.5812-0.19325 13.797 1.063 15.471 0.41287 0.55 1.0431 5.5 1.4005 11 0.35741 5.5 1.3579 12.475 2.2232 15.5 0.86536 3.025 1.7799 6.85 2.0322 8.5 0.89168 5.8298 1.3982 7.5 2.2743 7.5 0.48718 0 0.66059-1.9125 0.38534-4.25zm-195.91-15c1.9885-3.104 2.4975-8.75 0.78879-8.75-1.3739 0-5.3994 7.9968-4.8051 9.5455 0.80523 2.0984 2.3596 1.7905 4.0163-0.79547zm-23.565-1.5825c0.3-2.22-2.23-6.17-3.96-6.17-1.8693 0-2.8894 3.8857-1.7034 6.4886 1.507 3.3076 5.1691 3.0996 5.6536-0.32111zm13.709-4.2305c0.81084-1.312-2.1016-4.6634-4.7957-5.5185-2.0175-0.64032-3.6982 0.87623-3.728 3.3637-0.0284 2.3797 7.2478 4.2192 8.5236 2.1548zm9.7024-14.521c1.7923-2.4878 4.7425-6.5558 6.556-9.0401s4.2758-6.6226 5.4717-9.1963c1.1959-2.5736 4.4932-7.623 7.3272-11.221 2.834-3.5978 7.7379-11.023 10.897-16.5 12.351-21.411 16.851-29.018 18.019-30.459 0.66855-0.825 3.1002-4.9925 5.4036-9.2612 2.3034-4.2686 6.4147-11.617 9.1361-16.329 2.7214-4.7122 4.948-8.9905 4.948-9.5072 0-1.2867 5.0236-10.799 6.0323-11.423 0.4476-0.27663 1.1035-1.8217 1.4575-3.4336 0.35402-1.6118 1.9636-4.7528 3.5769-6.9799 1.6-2.23 2.92-4.37 2.92-4.75 0-1.4552 9.4347-21.009 12.036-24.945 1.4987-2.2678 3.2615-5.749 3.9173-7.7361 0.65579-1.9871 1.6095-3.8707 2.1194-4.1858 0.50987-0.31512 0.94231-1.3339 0.96097-2.2639 0.0187-0.93004 0.90339-3.491 1.9661-5.691 1.9985-4.1375 2.6083-8.5 1.1881-8.5-1.5025 0-4.7759 5.4316-10.109 16.774-2.9154 6.2006-7.2896 14.751-9.7204 19-2.4308 4.2494-4.6921 8.8513-5.0251 10.226-0.33302 1.375-1.1665 3.625-1.8522 5-0.68567 1.375-2.537 5.1039-4.1141 8.2865s-3.4191 6.7826-4.0933 8c-0.67422 1.2174-2.1787 4.2385-3.3433 6.7135s-2.8684 5.85-3.7862 7.5c-0.91777 1.65-3.2954 5.925-5.2837 9.5-1.9882 3.575-5.3202 9.65-7.4042 13.5-2.0841 3.85-4.0757 7.225-4.4258 7.5-0.35009 0.275-1.6946 2.3-2.9879 4.5-1.2932 2.2-3.7913 6.25-5.5513 9s-3.8281 6.1808-4.5959 7.6241c-3.4765 6.5355-5.3986 9.7602-8.951 15.017-2.0966 3.1028-5.0488 8.0528-6.5603 11s-4.9164 8.1224-7.5664 11.5c-2.65 3.38-4.82 6.58-4.82 7.12 0 0.53686-2.6569 4.4142-5.9042 8.6164-4.0762 5.2747-5.7449 8.2496-5.3896 9.6082 0.72601 2.7763 3.4208 1.1424 7.5352-4.5686zm-19.45 4.38c1.9611-1.9611 1.3593-4.9252-2.3957-11.8-4.1147-7.5334-10.232-29.159-16.407-58-2.5718-12.012-5.4316-19.485-8.7267-22.804-4.6074-4.6405-5.1234-1.2293-1.937 12.804 0.81178 3.575 1.9695 8.9278 2.5728 11.895 0.60325 2.9673 2.1684 8.8173 3.4781 13 6.7943 21.699 8.647 27.911 9.2761 31.105 0.37915 1.925 1.9021 5.975 3.3844 9s3.2377 7.3 3.901 9.5c0.66327 2.2 1.3826 4.5625 1.5986 5.25 0.49941 1.5898 3.6853 1.6202 5.2554 0.05zm12.732-14.185c1.0873-0.76154 3.7485-4.024 5.914-7.25 2.1654-3.226 4.7036-6.7654 5.6404-7.8654 0.93677-1.1 2.5443-3.575 3.5722-5.5 1.028-1.925 4.0031-6.7808 6.6114-10.791 2.6083-4.0099 6.0993-9.8599 7.7577-13s4.6931-8.29 6.7439-11.444c7.44-11.44 16.23-25.9 16.23-26.69 0-0.44531 0.88834-1.939 1.9741-3.3193 1.9136-2.4327 24.523-46.676 28.495-55.76 1.0821-2.475 4.8664-9.9 8.4096-16.5 3.5431-6.6 8.6685-16.5 11.39-22 2.7212-5.5 5.9034-11.898 7.0714-14.218 4.553-9.0443 1.1647-8.0676-14.673 4.2297-7.4603 5.7925-10.155 7.6226-18.92 12.849-7.47 4.45-8.75 6.68-8.75 15.22 0 5.6032-0.48482 8.1297-2.0784 10.831-1.2519 2.1218-1.8279 4.3118-1.4485 5.5072 0.34644 1.0915-0.0683 3.3348-0.92163 4.9849-0.85334 1.6502-1.5515 4.207-1.5515 5.682 0 1.4749-0.86259 4.0847-1.9169 5.7997-1.0543 1.7149-2.4247 5.593-3.0454 8.618-0.62071 3.025-1.5955 7.75-2.1662 10.5-1.0472 5.0458-4.6346 12.07-5.6472 11.058-0.30119-0.3012 0.0325-2.3056 0.74163-4.4541 1.0965-3.3226 1.0499-4.6089-0.31191-8.6057-1.4216-4.1721-1.4359-5.0188-0.12756-7.5488 0.81049-1.5673 1.474-4.1095 1.4744-5.6493 0.001-3.7025 2.8175-17.092 4.0989-19.486 0.5561-1.0391 0.72512-2.7903 0.37559-3.8915-0.37862-1.1929 0.22042-3.6444 1.482-6.0647 5.9527-11.42-3.6451-7.4866-32.457 13.303-15.885 11.462-15.374 10.499-10 18.839 2.8159 4.3707 3.5003 6.4165 3.5016 10.466 0.00096 3.0971 0.7447 6.3802 1.9332 8.5337 1.0624 1.925 2.5063 4.625 3.2086 6 0.70233 1.375 2.5324 3.9782 4.0668 5.7848 4.45 5.24 3.96 17.21-0.71 17.21-2.4138 0-3.5-1.686-3.5-5.4326 0-4.2695-2.1933-8.616-5.1084-10.124-2.6-1.34-2.89-2-2.89-6.43 0-4.0624-0.53272-5.5463-3-8.3563-2.3411-2.6664-3.0048-4.3762-3.022-7.7848-0.0747-14.863-8.8632-15.404-26.9-1.6555-1.3322 1.0154-4.3318 2.691-6.6656 3.7234-6.0568 2.6792-8.3555 6.4112-6.1161 9.9294 0.9224 1.4491 2.5592 4.4348 3.6372 6.6348 1.0781 2.2 2.8841 4.7831 4.0134 5.7402 1.2235 1.037 2.0532 2.9461 2.0532 4.7243 0 2.3043 0.68347 3.3375 3 4.5355 1.7469 0.90335 3 2.3503 3 3.464 0 1.0519 1.3679 3.4029 3.0398 5.2243s3.5215 5.209 4.1102 7.528c0.79487 3.131 1.9282 4.7224 4.4029 6.1825 3.001 1.7706 3.3983 2.548 3.9942 7.8151 0.62249 5.5021 0.81854 5.847 3.3073 5.8175 1.5179-0.018 2.603 0.50149 2.5456 1.2187-0.055 0.6875-0.1675 3.2592-0.25 5.7148-0.25745 7.6631-7.15 8.7243-7.15 1.1008 0-2.3843-0.75733-3.7494-3-5.4075-1.65-1.2199-3-3.1032-3-4.1852s-1.5107-3.656-3.357-5.7201c-1.8464-2.0641-4.1372-6.1294-5.0907-9.0339-0.9535-2.9046-2.7562-6.5046-4.0061-8s-2.5976-3.7572-2.9949-5.0262c-0.39732-1.269-1.8187-2.7241-3.1585-3.2335-1.5861-0.60305-2.6488-1.9894-3.0455-3.9733-0.33518-1.6759-1.6371-3.8554-2.8932-4.8434-1.2561-0.98802-2.7716-3.608-3.3678-5.8222-1.5448-5.7371-5.7244-10.111-7.738-8.0971-1.9638 1.9638 5.9479 19.614 9.9745 22.253 1.4028 0.91917 2.8574 3.068 3.2323 4.7751 1.2904 5.875 15.752 26.237 20.401 28.725 1.7499 0.93652 2.122 2.315 3.6595 13.559 0.76979 5.6295-2.1557 9.4502-5.922 7.7342-5.011-2.2832-5.3454 2.583-1.012 14.73 2.6424 7.4068 7.8748 10.1 12.85 6.6154zm209.61-8.2472c1.6675-1.5091 1.9904-1.5091 4.2936 0 3.1213 2.0452 5.4951 2.0666 8.3383 0.0751 3.5015-2.4525 2.978-5.7812-0.82152-5.2235-3.5224 0.51697-4.5856-0.45232-2.445-2.2289 0.9142-0.75872 1.5027-3.0221 1.5244-5.8633 0.0195-2.5452 0.67854-5.7526 1.4646-7.1276 0.78602-1.375 1.4451-3.6515 1.4646-5.0589 0.11626-8.3951 6.0309-6.5167 6.7414 2.141 0.67356 8.2074 1.376 9.0054 3.0085 3.4179 3.1476-10.774 3.0263-11.268-2.9333-11.961-1.8046-0.20958-5.0812-0.91664-7.2812-1.5712-4.1524-1.2355-23.653-1.6099-25.466-0.48889-1.2897 0.7971-1.356 4.2034-0.0968 4.9816 2.7399 1.6934 4.007 6.9031 3.4066 14.006-0.69549 8.2277 0.51228 10.279 3.2868 5.5818 3.2327-5.4726 4.7274-5.0374 5.8424 1.701 0.63233 3.8214 0.50092 4.25-1.3028 4.25-3.3265 0-5.1697 1.1078-5.1697 3.107 0 2.3953 3.6176 2.549 6.1456 0.26121zm25.819-1.3025c1.22-2.27 1.38-6.07 0.26-6.07-1.76 0-5.22 3.24-5.22 4.89 0 3.5388 3.2839 4.3165 4.9648 1.1757zm14.74-5.32c2.7846-3.0535 7.9207-21.121 9.31-32.75 2.4647-20.631 2.7751-25.998 2.2558-39-0.67703-16.949 0.84942-29.021 4.8998-38.751 3.17-7.63 3.17-10.25-0.02-10.25-2.2198 0-3.6111 1.4957-4.6508 5-0.40798 1.375-1.8543 4.8807-3.2141 7.7904s-2.8129 7.6347-3.2291 10.5c-0.41619 2.8653-1.7797 7.9096-3.0301 11.21-1.2504 3.3-3.0926 10.275-4.0939 15.5s-2.7376 12.132-3.8585 15.349c-5.0694 14.55-5.8423 31.523-2.0394 44.783 0.52912 1.8449 0.96203 4.783 0.96203 6.5292 0 6.6025 2.8342 8.3311 6.7032 4.0884zm-65.585-8.5c0.0651-0.9625 0.10996-1.975 0.0996-2.25-0.0104-0.275-0.28783-7.7736-0.61661-16.663-0.32879-8.8899-0.87655-16.99-1.2172-18-0.34069-1.0101-1.7719-4.7615-3.1804-8.3365-4.2938-10.898-5.9322-24.244-4.9718-40.5 0.79914-13.527 0.74426-14.203-1.6229-20-1.3475-3.3-2.9761-7.7038-3.619-9.7862-0.64296-2.0824-2.4681-4.7467-4.0558-5.9205-1.7245-1.275-3.5131-4.02-4.4424-6.818-0.85564-2.5761-3.0152-6.3243-4.7991-8.3295-6.3583-7.1469-7.7742-3.034-2.2187 6.445 12.096 20.638 18.547 44.455 11.545 42.625-2.4614-0.64367-3.3418 1.7216-2.1169 5.6873 1.5666 5.0718 5.0057 27.102 6.5719 42.097 2.3541 22.54 13.721 53.394 14.644 39.75zm-13.083-4.644c-0.64949-1.968-1.5981-3.836-2.1079-4.1511-1.3169-0.81387-1.1497 3.9622 0.24583 7.0252 1.7661 3.8761 3.3056 1.4998 1.8621-2.8741zm21.146-4.2002c-0.42868-9.2884-0.91513-10.872-2.8477-9.2676-1.4205 1.1789-1.1341 13.637 0.37153 16.165 1.5914 2.6718 2.7667-0.60178 2.4762-6.897zm-25.73-13.144c-0.40034-4.806-1.1294-10.094-1.6202-11.75-0.49081-1.6565-1.5757-7.9618-2.4109-14.012-3.9554-28.652-4.7113-31.609-7.3937-28.927-2.8175 2.8175 1.3123 40.541 5.4658 49.927 0.73014 1.65 1.8636 5.025 2.5188 7.5 2.584 9.7613 4.3635 8.345 3.4402-2.7382zm46.35-5.27h10.532l4.1714-4.3535c10.612-11.075 14.127-23.615 5.3459-19.074-7.7203 3.9923-6.5769-1.1523 1.3798-6.2082 4.6786-2.9729 8.3644-8.4755 11.295-16.862 2.8056-8.029 2.3678-8.337-4.8237-3.394-10.192 7.0055-12.894 2.8012-3.1366-4.8814 6.2632-4.9316 9.8458-9.5584 14.846-19.173 2.13-4.0956 5.1268-9.4241 6.6597-11.841 3.91-6.1655 3.3229-6.7888-6.3549-6.7474-6.6554 0.0285-10.852-0.71792-21.988-3.9103l-13.763-3.9454-8.734-8.8155c-9.5181-9.6069-11.696-10.919-13.662-8.2315-1.3118 1.7939-3.5726 1.2447-3.5856-0.8711-0.0138-2.2463-10.492-12.413-15.493-15.031-7.0557-3.6946-10.768-7.0256-10.339-9.2765 0.59011-3.0939 4.6733-2.9192 8.2039 0.35094 12.018 11.132 15.333 6.0173 5.5313-8.5345-1.58-2.38-2.88-4.85-2.88-5.52 0-1.95-8.04-13.69-9.38-13.69-3.7117 0-4.7163 4.6872-1.1941 5.5712 2.6741 0.67115 3.8236 2.6104 2.9291 4.9415-0.36385 0.94818 0.80782 2.7843 3.1397 4.9202 2.0461 1.8742 3.4199 3.8934 3.0528 4.4873-0.83967 1.3586-5.2232 1.4164-6.0493 0.0798-0.33992-0.55-2.8415-1-5.559-1-5.5928 0-5.9862 0.7734-2.9372 5.7742 2.4314 3.9878 2.476 5.0382 0.31574 7.4253-1.5926 1.7598-1.473 2.0778 2.2868 6.0787 9.3006 9.897 16.196 24.017 12.235 25.053-3.2228 0.84279-1.9854 8.2941 4.0137 24.169 2.5101 6.642 2.6488 7.9716 2.713 26 0.079 22.17 0.85647 25.797 8.666 40.433l5.0333 9.4327-2.1335 1.7276c-4.4814 3.6288-2.2639 6.1373 4.7561 5.3803 2.41-0.26 9.13-0.47 14.92-0.47zm85.94-6.24c0.6875-0.55003 1.25-2.147 1.25-3.5489 0-1.4018 0.68889-3.31 1.5309-4.2404 1.95-2.16 3.25-11.97 1.58-11.97-1.33 0-3.11 4.13-3.11 7.25 0 2.4-3.66 6.75-5.67 6.75-1.877 0-1.8316-9.5919 0.0488-10.313 0.75599-0.2901 1.6892-2.6258 2.0738-5.1904 0.38458-2.5646 1.341-6.482 2.1255-8.7053 1.741-4.9347 1.7986-8.1191 0.22533-12.47-1.6503-4.5638-2.5687-4.1641-3.2842 1.429-0.33419 2.6125-1.0368 7.4869-1.5613 10.832s-0.95364 7.5234-0.95364 9.2852-0.68753 4.2526-1.5278 5.535c-5.0185 7.6591 1.0069 20.37 7.2778 15.353zm-443.42-7.36c3.8964-3.8964 4.821-13.303 1.7897-18.208-1.5267-2.4703 2.5971-20.284 5.3644-23.173 5.3071-5.5394 2.2313-10.016-6.8873-10.024-7.462-0.006-11.466-2.1527-13.102-7.0237l-1.167-3.47-8.913-0.25c-10.534-0.31-12.264 0.37-10.276 3.99 9.839 17.94 13.969 28.76 10.978 28.76-1.3431 0-4.0906-4.628-4.773-8.0398-0.33344-1.6672-1.4468-3.4811-2.4741-4.0309-1.027-0.55-1.868-1.63-1.868-2.39 0-0.76345-1.1312-2.7324-2.5137-4.3754s-3.1967-4.6221-4.0316-6.6202c-3.7532-8.9826-7.4471-5.3637-7.4786 7.3266-0.013 5.3-0.513 11.43-1.11 13.63-3.114 11.466-2.3763 16.409 2.8182 18.886 2.0606 0.98261 5.4018 3.0976 7.4251 4.7001 2.0232 1.6024 4.0204 2.9135 4.4381 2.9135 0.41771 0 3.1385 2.25 6.0462 5l5.2868 5h8.9235c8.2775 0 9.1118-0.18829 11.525-2.601zm-7.578-12.38c-2.046-2.15-2.75-3.9-2.75-6.83 0-2.29-0.631-4.47-1.5-5.19-3.1799-2.6391-0.83395-6.6732 5.815-9.9993 3.6899-1.8459 4.2289-0.92432 5.0346 8.6076 1.1385 13.469-1.4786 18.786-6.5997 13.407zm-29.25-3.72c-7.48-1.5557-9.9939-5.0826-6.3713-8.9386 1.1708-1.2462 2.8698-5.1002 3.7756-8.5644 2.299-8.7926 5.6672-9.1124 8.4107-0.79857 0.99825 3.025 2.2357 5.9275 2.75 6.45 4.6474 4.7219-1.5583 13.309-8.565 11.852zm60.613 7.0627c0.74661-0.89961 1.5964-3.9371 1.8884-6.75 0.40176-3.8699 0.89205-5.0203 2.015-4.7277 5.3479 1.3935 5.984 1.3315 5.984-0.58302 0-1.0612-1.35-3.2229-3-4.8037s-3-3.2804-3-3.7768c0-1.4923-4.3598-4.6543-6.4666-4.6899-7.4838-0.12661-12.541 4.764-11.101 10.735 0.36235 1.5023 1.1106 4.9815 1.6628 7.7315 1.5104 7.5219 8.2679 11.382 12.017 6.8644zm33.306-4.9713c4.0303-1.5466-0.1648-5.243-4.4182-3.893-2.4658 0.7826-2.6237 3.1904-0.25 3.8107 2.7577 0.72066 2.9939 0.72482 4.6682 0.0823zm-12.391-11.962c0.88758-1.6121 3.5349-3.9996 5.883-5.3055 3.8014-2.1143 4.1042-2.5394 2.764-3.8796-2.1341-2.1341-6.3213-0.82583-8.0612 2.5186-0.78274 1.5045-2.5853 3.8212-4.0057 5.1481-2.011 1.8787-2.3308 2.7159-1.4449 3.7833 1.5491 1.8665 2.9491 1.2148 4.8649-2.2648zm21.818 2.1318c1.4599-0.79045 10.951-5.5472 21.091-10.571 10.14-5.0233 20.762-10.677 23.604-12.563 2.8417-1.8862 5.4622-3.4295 5.8235-3.4295 0.36121 0 2.8099-1.4625 5.4416-3.25 4.7526-3.2281 6.1471-4.0769 13.082-7.9625 7.1673-4.016 17.713-11.15 22.613-15.298 2.75-2.3278 6.35-4.9742 8-5.8808 1.65-0.90656 5.025-3.18 7.5-5.0522 2.475-1.8721 9.9-6.675 16.5-10.673s13.689-8.7573 15.753-10.576c2.0641-1.8189 4.1327-3.3071 4.5969-3.3071 1.5852 0 17.642-10.86 21.259-14.378 1.9849-1.9308 5.6974-4.5252 8.25-5.7653 2.5526-1.2402 4.6412-2.606 4.6412-3.0352 0-0.42923 1.6875-1.676 3.75-2.7706 6.3552-3.3728 10.935-7.74 9.5662-9.1224-1.512-1.5272-7.3643 1.8244-15.816 9.0578-3.3 2.8243-8.7 6.7661-12 8.7597s-7.35 4.6107-9 5.8158-4.6584 2.7222-6.6854 3.3712-3.8392 1.6415-4.0273 2.2056c-0.32328 0.96984-6.0856 4.4605-17.246 10.447-2.7272 1.4629-7.4151 4.5172-10.418 6.7874-6.0123 4.5458-9.4485 6.9622-28.624 20.129-21.287 14.617-31.792 21.552-35.5 23.438-15.945 8.1099-31.666 16.426-32.45 17.165-0.5225 0.49254-1.75 0.89553-2.7278 0.89553-0.97781 0-4.1503 1.0802-7.05 2.4005-2.8997 1.3202-7.829 3.5691-10.954 4.9974-5.924 2.7077-7.9378 5.5481-5.7784 8.1501 1.522 1.8339 3.4385 1.8381 6.8059 0.0148zm-30.43-7.31c-0.98019-2.1513-0.95529-6.9921 0.0513-9.9717 0.60656-1.7955 0.25003-2.4497-1.8587-3.4105-1.79-0.82-2.61-1.97-2.61-3.66 0-2.2269-0.30127-2.4042-3.125-1.8395-1.7188 0.34375-4.7562 0.63729-6.75 0.65232-4.3249 0.0326-11.83 12.104-8.3547 13.438 0.93141 0.35741 1.9665-0.0306 2.4669-0.92479 1.6069-2.8714 5.5109-1.7398 10.21 2.9594 4.823 4.823 11.789 6.7446 9.9693 2.75zm32.876-7.4064c1.1884-0.63601 3.5213-1.5052 5.1842-1.9316 5.5827-1.4313 11.714-3.9599 13.196-5.4421 0.80848-0.80848 1.936-1.47 2.5055-1.47 0.5929 0 0.72887-0.74805 0.31809-1.75-0.39461-0.9625-1.0865-5.2299-1.5375-9.483-0.45101-4.2532-1.1028-8.1907-1.4485-8.75-2.4636-3.9862-23.4 5.3403-28.945 12.894-3.4956 4.762-5.9465 6.4756-10.746 7.5129-3.3197 0.71756-5.8199 3.1185-5.8199 5.5887 0 2.6621 1.0087 2.9743 5.6267 1.7417 3.2982-0.88033 4.8167-0.77983 7.9737 0.5277 4.6351 1.9197 10.69 2.1681 13.692 0.56178zm-18.833-13.583c4.2243-4.5557 2.2182-5.6948-4.8374-2.7468-4.1566 1.7367-4.5949 3.16-1.3721 4.4554 3.2904 1.3226 3.436 1.2825 6.2095-1.7086zm-21.448-4.2809c1.6-3 0.4-3.98-4.912-3.98-5.94 0-6.716 0.72354-3.9425 3.6758 2.7596 2.9375 7.3519 3.0951 8.8459 0.30352zm-30.808 0.0899c1.254-0.51 3.526-1.2 5.038-1.52 5.598-1.2 2.081-5.55-4.484-5.55-3.906 0-5.766 1.49-5.766 4.62 0 1.8684 0.46133 2.4324 2.7029 3.3044 0.11162 0.0434 1.2366-0.33991 2.5-0.85184zm109.79-0.07c0-0.55 0.7875-1.01 1.75-1.0222s2.875-0.90222 4.25-1.9778c1.375-1.0755 3.0221-1.9655 3.6602-1.9778 0.63811-0.0122 3.3381-1.712 6-3.7773s7.4184-5.439 10.57-7.4971c12.176-7.9514 6.4091-22.036-6.2302-15.215-1.375 0.74194-5.4332 2.4732-9.0182 3.8473s-7.86 3.198-9.5 4.0531c-1.64 0.85513-3.5211 1.5576-4.1802 1.5609-0.65916 0.003-2.3928 1.113-3.8526 2.4659l-2.6541 2.4597 2.6567 2.2903c2.3367 2.0144 2.6803 3.1021 2.8526 9.031 0.17 5.77 3.7 11.27 3.7 5.76zm-62.335-7.2071c-2.0496-1.2673-4.2398 1.81-2.6509 3.7246 1.2163 1.4656 1.4591 1.4003 2.5795-0.69309 0.93526-1.7476 0.95266-2.4866 0.0714-3.0315zm16.419-1.4411c4.0784-2.0065 10.252-4.6554 13.718-5.8864 3.4667-1.231 6.5792-2.5143 6.9167-2.8518 0.33746-0.33746 1.4872-0.61356 2.5549-0.61356 1.6612 0 18.232-7.3645 22.725-10.1 0.825-0.50221 2.175-1.1705 3-1.4852 0.825-0.31464 3.525-1.4029 6-2.4184s7.2-2.8774 10.5-4.1375c5.2863-2.0186 20.853-9.3415 28.794-13.545 1.5365-0.81338 4.0115-1.8615 5.5-2.3291 6.5129-2.0461 21.734-8.1379 23.152-9.266 1.7282-1.3748 3.371-2.1925 20.429-10.167 6.54-3.05 12.4-5.55 13.03-5.55 0.63405 0 2.1144-0.67349 3.2896-1.4966 1.1752-0.82315 8.379-4.6291 16.008-8.4577 14.681-7.3671 19.615-11.13 17.443-13.302-0.97351-0.97351-1.8991-0.83506-4.4368 0.66369-4.8334 2.8546-12.546 6.7101-30.207 15.1-8.8 4.1807-18.025 8.6886-20.5 10.018-8.6724 4.6565-21.439 10.657-27.633 12.989-3.4382 1.2941-11.923 5.1104-18.855 8.4806-12.074 5.8701-26.222 11.995-27.723 12.002-0.39152 0.002-3.9915 1.5193-8 3.3721s-10.438 4.6053-14.288 6.1168-7.9 3.1297-9 3.596c-1.1 0.46633-4.475 1.7263-7.5 2.7999s-10.45 3.7092-16.5 5.8567c-16.133 5.7267-24.097 10.997-20.28 13.419 2.2306 1.4155 4.2607 0.93541 11.864-2.8055zm-27.58-0.93c0-1.3888-0.8262-2.0086-3-2.2503-1.65-0.18352-3.6853-0.94825-4.5228-1.6994-0.92839-0.83262-2.0541-1.0374-2.8839-0.52455-0.7486 0.46265-2.6865 0.46107-4.3064-0.004-11.524-3.31-60.308-4.34-66.287-1.4-10.424 5.1165-2.8068 7.0896 17.181 4.4507 4.4419-0.58643 13.597-0.60385 24-0.0457 9.2502 0.49634 17.944 0.68875 19.319 0.42757s6.1 0.41456 10.5 1.5016c9.0981 2.2478 10 2.2068 10-0.45419zm10.694-7.3034c0.76221-1.9138 0.60857-5.29-0.57396-12.613-0.88813-5.5-2.0797-16.975-2.648-25.5-0.56829-8.525-1.2313-16.175-1.4734-17s-0.90765-7.575-1.479-15c-0.57134-7.425-1.473-15.525-2.0038-18-5.6787-26.482-0.81505-29.489 12.329-7.6229 2.6855 4.4676 5.9564 9.1967 7.2688 10.509l2.39 2.38-0.01-2.38c-0.03-6.71-8.97-26.4-14.99-33l-3.5-3.8385-5.9199 2.4725c-3.26 1.37-6.733 2.48-7.727 2.48-3.308 0-4.9001 4.2752-5.8255 15.642-0.48616 5.972-1.3106 11.983-1.8321 13.358-0.52151 1.375-1.4523 6.55-2.0683 11.5-2.1786 17.505-4.262 31.076-5.7312 37.335-2.6951 11.481-3.0389 19.435-0.82148 19.008 1.9445-0.37447 3.4647-4.9764 5.5642-16.843 1.1646-6.5828 3.1803-16.285 5.9117-28.456 1.1055-4.9258 2.2747-12.351 2.5984-16.5 1.3168-16.881 6.5237-15.635 6.8373 1.6365 0.10807 5.9507 0.71149 13.519 1.3409 16.819 1.7517 9.1838 3.1087 29.539 2.1393 32.088-0.59107 1.5546-0.43951 2.604 0.48718 3.3731 1.2852 1.0666 2.1141 7.4355 3.0302 23.282 0.53015 9.1708 3.9959 11.686 6.7105 4.8701zm-11.854-4.4252c1.6622-3.3606 1.7336-4.6611 0.73929-13.454-0.6054-5.3537-1.6226-14.684-2.2605-20.734-1.5393-14.6-6.7325-26.11-6.8544-15.191-0.01959 1.755-0.72834 5.891-1.575 9.191-4.4287 17.262-4.48 20.513-0.38153 24.165 3.8312 3.4136 5.4447 9.0446 4.0404 14.101-1.7158 6.1782-1.4513 7.1655 1.7017 6.3522 1.814-0.4679 3.3763-1.9756 4.59-4.4295zm388.66 0.53c0-3.2191-0.94365-4.695-10.457-16.355-3.8738-4.748-7.9432-9.8835-9.0432-11.412-1.1-1.5287-4.4896-5.7581-7.5324-9.3987s-6.8659-8.4051-8.4958-10.588c-1.6298-2.1827-5.6727-7.3436-8.984-11.469-5.5812-6.9526-8.9278-11.784-19.048-27.5-4.0351-6.266-9.3057-12.5-10.568-12.5-5.0131 0 1.7693 13.337 15.846 31.16 2.3195 2.9368 6.5945 8.4229 9.5 12.191 2.9055 3.7685 8.3881 10.495 12.183 14.947 3.7954 4.4522 9.3153 11.719 12.266 16.148 16.09 24.16 24.33 32.55 24.33 24.78zm-404.16-0.66c-1.545-1.29-11.836-1.4-11.836-0.13 0 0.99084 1.3483 1.552 4.25 1.7689 3.6561 0.27329 8.5997-0.79864 7.5856-1.6448zm45.479 0.34531c16.435-6.6457 16.616-6.8174 13.787-13.032-1.0943-2.4039-2.2484-5.6083-2.5647-7.1208-0.77825-3.7215-3.9611-3.6191-9.2885 0.29864-8.6634 6.3711-14.25 21.817-7.9339 21.936 0.44804 0.008 3.148-0.92825 6-2.0815zm-77.322-1.41c0.551-0.34 1.002-2.18 1.002-4.09 0-7.2099 4.6404-13.512 10.973-14.903 4.2856-0.94128 6.042-4.5887 7.6181-15.82 1.5831-11.281 5.1693-30.49 5.9186-31.703 0.76564-1.2388 3.665-25.469 4.3595-36.433 0.91065-14.375 1.5059-13.927-19.013-14.308-8.996-0.16-22.432-0.94-29.857-1.72-18.063-1.9-15.715-5.52-22.052 33.98-1.465 9.13-1.02 21.59 1.052 29.5 1.0811 4.125 1.9688 9.075 1.9726 11s1.1691 10.925 2.5895 20 2.7927 17.948 3.0495 19.718c0.83925 5.7837 1.8091 6.1043 17.351 5.7354 7.7185-0.18322 14.484-0.61171 15.035-0.9522zm-26.06-15.25c-0.179-5.07-2.045-16.75-3.875-24.25-3.121-12.79-4.348-19.86-4.599-26.5-0.125-3.3-0.564-7.12-0.976-8.5-0.707-2.36-0.649-2.4 1.009-0.84 3.042 2.88 7.503 14.85 7.503 20.14 0 2.6713 0.85857 9.8842 1.9079 16.029 2.973 17.41 3.282 25.67 0.958 25.67-1.0874 0-1.8923-0.73048-1.9283-1.75zm33.663-33.364c-1.5792-4.967-1.3003-17.796 0.4447-20.456 3.0656-4.6732-3.3847-6.4384-9.8881-2.706-5.8627 3.3648-10.408-8.0452-5.6894-14.283 0.80751-1.0676 1.4825-3.1089 1.5-4.5361 0.032-2.57 2.71-5.91 4.738-5.91 0.57685 0 1.609-0.675 2.2937-1.5 1.3548-1.6325 5.7002-1.9763 7.8396-0.62028 1.4219 0.90122-5.8673 5.5871-10.499 6.7498-4.3937 1.1028-1.2375 2.5438 4.0177 1.8344 6.5137-0.87928 8.4907-1.9353 9.7311-5.1979 0.90536-2.3813 1.1331-2.4726 2.5737-1.0319 1.4407 1.4407 1.4371 1.7853-0.0411 3.8957-0.892 1.27-1.622 3.06-1.622 3.97 0 0.91028-0.67004 2.2111-1.489 2.8908-0.81894 0.67967-1.2545 1.6151-0.96798 2.0788 0.57486 0.93014 3.6229 0.0698 4.5369-1.2806 1.1087-1.6379 4.009 0.35533 3.3837 2.3254-0.32777 1.0327-0.06081 3.3576 0.59325 5.1663 1.0685 2.9549 0.88447 3.8941-1.8134 9.2539-1.6514 3.2809-3.577 8.5466-4.2791 11.701-1.308 5.878-4.4857 10.41-5.3634 7.6499zm3.08 43.002c-0.27128-1.0374-0.08548-2.1382 0.41288-2.4462 0.498-0.31 0.906-1.52 0.906-2.69 0-2.005-0.17355-1.9618-3 0.74611-3.4543 3.3094-3.5688 3.7884-1.4194 5.9378 1.936 1.936 3.7719 1.0184 3.1004-1.5496zm13.819 1.11c0-1.9479-5.4822-2.6347-6.6262-0.83008-1.5237 2.4035-0.92311 2.9549 2.8762 2.6404 2.5287-0.20929 3.75-0.79888 3.75-1.8104zm142.26-2.6009c2.441-1.4305 9.8903-6.493 16.554-11.25s13.589-9.5491 15.389-10.649c1.8003-1.1 6.1122-3.7107 9.582-5.8015 17.073-10.288 14.084-10.847-5.8182-1.0879-7.17 3.51-13.6 6.39-14.31 6.39-1.3806 0-6.1196 2.0416-18.816 8.1063-4.4834 2.1416-8.63 3.8937-9.2148 3.8937-2.7658 0-3.7961 8.501-1.4838 12.242 0.86789 1.4043 3.6495 0.77225 8.1126-1.8433zm-65.697-2.4343c2.3147-1.2388 2.4913-3.2576 0.43426-4.9648-0.825-0.68469-1.5-2.5631-1.5-4.1743s-1.0106-4.6854-2.2459-6.8317c-1.7023-2.9579-1.9654-4.1827-1.0871-5.061 2.8-2.8 9.34 7.08 9.34 14.11v4.9499h3.4286c1.8857 0 4.0814-0.65278 4.8792-1.4506 0.79785-0.79785 2.7425-1.7625 4.3214-2.1436 1.5789-0.38117 5.5708-1.9506 8.8708-3.4876 9.1163-4.246 15.63-6.9177 16.877-6.9224 0.61758-0.002 3.3729-1.176 6.1229-2.6081 11.254-5.8611 16.43-8.388 17.194-8.3938 0.44335-0.003 2.1561-0.72395 3.8061-1.6012 5.45-2.89 20.82-9.39 22.23-9.39 0.75913 0 6.0517-2.6965 11.761-5.9922 5.7096-3.2957 14.123-7.6005 18.697-9.5662 4.5739-1.9657 9.6663-4.1884 11.316-4.9392 1.65-0.75083 6.6-2.9753 11-4.9434 12.092-5.4087 12.975-5.9557 13.307-8.245 0.25668-1.7731-0.35344-2.2306-3.7367-2.8022-2.2239-0.37573-5.5119-1.6876-7.3068-2.9153-14.531-9.9395-17.687-12.217-20.763-14.987-3.24-2.917-9.5601-7.2348-27.5-18.788-3.85-2.4793-9.0218-5.816-11.493-7.4149-25.298-16.368-47.832-27.168-72.512-34.75-10.332-3.1743-27.224-6.7625-33.596-7.1366-3.6303-0.21313-11.26-0.90024-16.955-1.5269-10.317-1.1353-16.32-0.74419-18.694 1.2181-3.0532 2.5231 1.2786 23.611 5.6982 27.74 3.9952 3.7321 6.0518 9.2517 6.0518 16.242 0 6.3693 2.5363 12.177 7.9949 18.306 5.1983 5.8371 17.427 36.985 18.91 48.165 3.4043 25.67 4.2814 31.529 5.6781 37.928 2.4297 11.132 5.1551 14.688 9.4829 12.372zm12.722-12.629c-0.94158-0.25717-3.3308-3.8332-5.3093-7.9467s-4.9129-8.6513-6.5209-10.084c-1.7608-1.5689-3.1724-4.0366-3.5492-6.2049-0.34407-1.98-1.7148-5.2179-3.046-7.1953-3.8304-5.6898-4.3641-13.491-1.027-15.012 3.1947-1.4556 5.2368-0.11518 6.1485 4.0357 0.33707 1.5347 1.9859 4.0911 3.6641 5.6809 5.0258 4.761 9.054 11.333 10.252 16.726 0.92162 4.1502 1.5834 5.187 3.6141 5.6618 1.9994 0.4675 2.5454 1.2878 2.7903 4.1921 0.68527 8.1281-1.712 11.594-7.0164 10.146zm23.322-15.067c-3.0856-3.2487-6.2299-7.6758-6.9873-9.8379-1.6889-4.8215-2.8966-6.3945-5.7393-7.4753-1.381-0.52507-2.4654-2.0665-2.9164-4.1458-0.39484-1.8205-2.2365-4.9988-4.0926-7.0628-1.84-2.07-3.36-4.2-3.36-4.75 0-0.54683-1.5155-2.683-3.3678-4.7471-2.88-3.21-8.63-13.6-8.63-15.6 0-3.3976 9.3556 2.1686 11.862 7.0573 1.0684 2.0841 3.086 4.7765 4.4834 5.9831s3.0876 4.0191 3.756 6.25c0.66838 2.2309 1.594 4.0561 2.057 4.0561 2.965 0 5.8417 1.7238 5.8417 3.5004 0 0.78651 1.3982 3.0225 3.1072 4.969 1.709 1.9464 3.5257 5.4014 4.0371 7.6777 0.51386 2.287 2.9914 6.8494 5.5374 10.197 8.3612 10.994 4.0365 14.041-5.5716 3.9246zm11.785-51.535c-3.7671-3.2297-7.5285-6.1618-14.96-11.662-3.611-2.6724-7.2705-5.9352-8.1323-7.2505-2.1154-3.2285-12.42-9.471-17.075-10.344-2.6652-0.5-4.7746-1.8821-7.2038-4.7201-2.5958-3.0326-3.9524-3.8778-5.5527-3.4593-1.981 0.51805-9.971-6.1072-9.971-8.2679 0-0.40117-2.929-1.9743-6.509-3.4958-6.7961-2.8884-11.809-7.5403-10.842-10.061 1.3302-3.4664 12.737 0.45121 16.435 5.6445 1.5341 2.1544 2.8655 2.8826 5.2707 2.8826 2.3347 0 4.4435 1.0903 7.6819 3.9716 2.4551 2.1844 5.2167 3.9844 6.137 4 0.92031 0.0156 2.9453 1.0691 4.5 2.3412 1.5547 1.272 4.852 3.0664 7.3274 3.9875 3.2307 1.2021 5.7382 3.2256 8.8863 7.1708 2.4121 3.0228 6.9118 7.3977 9.9993 9.7219 7.8431 5.904 18.86 16.921 19.271 19.271 0.48779 2.792-2.1616 2.9277-5.262 0.26969zm-76.24 71.51c10.54-10.842 10.793-13.3 3.5161-34.25-3.5593-10.248-17.08-39-18.339-39-2.1441 0-2.9324 4.4012-1.9396 10.828 1.8846 12.201 3.054 23.506 4.155 40.172 1.3282 20.103 2.8391 30 4.5799 30 0.27126 0 3.8837-3.4875 8.0276-7.75zm327.02-0.40043c4.36-4.09-0.12-14.28-13.58-30.85-2.0091-2.475-4.7621-6.1844-6.1178-8.2432-1.3557-2.0587-2.7909-3.7462-3.1892-3.75-0.39838-0.004-1.3923-1.2986-2.2087-2.8774-0.81642-1.5788-3.528-4.8182-6.0257-7.1986-2.5-2.38-4.54-4.86-4.54-5.52 0-1.5867-2.7658-2.5963-3.5659-1.3017-0.34649 0.56063 0.16165 1.8941 1.1292 2.9632s2.2491 2.8115 2.848 3.8718c3.3497 5.9315 11.208 18.289 14.665 23.058 13.035 17.99 8.2598 27.703-5.7112 11.618-4.95-5.71-17.36-30.01-17.36-34 0-2.2615-3.9659-8.5304-6.1289-9.688-4.2596-2.2796-2.666 6.8616 2.5312 14.52 1.3806 2.0344 3.4183 6.1261 4.5282 9.0926 11.412 30.502 31.688 48.679 42.73 38.306zm-96.66-13.12c0-6.012-13.588-14.344-16.895-10.36-2.0057 2.4167-0.21578 4.6263 3.7518 4.6315 2.766 0.004 4.5591 0.84616 7.4487 3.5 4.0007 3.6743 5.6944 4.337 5.6944 2.228zm-29.53-12.68c1.75-3.37 1.94-5.05 0.6-5.05-1.77 0-4.07 3.15-4.07 5.57 0 3.3009 1.6236 3.057 3.4743-0.52177zm176.22 0.34882c3.6947-3.6947 2.4235-31.86-1.497-33.167-0.86322-0.28774-1.2183 2.0566-1.2777 8.4348-0.19044 20.457-4.9514 24.808-18.949 17.316-2.6852-1.437-3.4469-0.74575-2.0514 1.8618 1.7591 3.2868 7.2173 6.5686 12.059 7.2507 7.958 1.121 9.0575 0.96175 11.716-1.697zm-132.17-21.15c2.3472-2.6668 3.3711-7.25 1.6196-7.25-1.1041 0-6.136 7.2197-6.136 8.8038 0 2.0156 1.9719 1.3372 4.5164-1.5538zm-37.483-10.956c-4.5005-4.061-5.4816-12.299-1.7555-14.74 1.3923-0.91229 2.8079-2.76 3.1458-4.1061 0.75115-2.9928 1.9641-3.074 5.4117-0.36205l2.651 2.0853 1.0067-2.3399c2.0742-4.8213 2.5513-5.1264 4.8622-3.1084 4.9759 4.3451 5.5351 4.5827 4.9071 2.0849-0.31902-1.2689-1.6337-3.5793-2.9216-5.1342-3.6752-4.4372-4.0745-7.6046-1.234-9.7885 2.8841-2.2175 5.7534-2.4118 6.5097-0.4409 1.0645 2.774 8.1735 5.7028 10.441 4.3016 3.3402-2.0641 2.1701-5.9844-2.1546-7.2186-1.9783-0.56458-5.2565-2.489-7.2848-4.2765-9.3639-8.252-28.142-0.77213-23.094 9.199 2.7264 5.3853 3.1311 6.9984 1.0766 4.2914-1.4161-1.8658-5.878-0.52816-7.6154 2.283-1.309 2.118 0.14494 24.395 1.6497 25.276 0.75064 0.43983 1.3648 1.4197 1.3648 2.1774 0 0.75775 1.2375 2.3533 2.75 3.5457 4.0766 3.2138 4.3271-0.0803 0.28356-3.729zm74.995-10.309c2.3563-1.2611 1.6528-3.3533-1.6306-4.8493-3.2088-1.462-3.0689-1.5018-3.7395 1.0625-1.0033 3.8365 1.7066 5.7474 5.37 3.7868zm71.32-8.4261c1.7331-0.79275 5.0636-1.9351 7.4011-2.5386 2.3375-0.60345 4.25-1.5298 4.25-2.0586 0-1.493-8.3116-1.1319-10.584 0.45986-1.1161 0.78173-3.5481 1.8149-5.4045 2.296-1.8564 0.48104-3.5559 1.4164-3.7766 2.0787-0.55944 1.6783 4.2326 1.5382 8.1142-0.2373zm-27.937-0.41627c0.59793-0.96747-0.18433-3.7482-3.7047-13.169-2.7829-7.4473-6.4368-14.429-13.326-25.463-2.5896-4.1476-4.4034 0.75374-1.9745 5.3353 4.7689 8.9954 13.593 28.091 13.593 29.415 0 3.9513 3.72 6.6193 5.412 3.8816zm-63.608-4.0201c-0.34668-2.9894-3.0875-3.6048-3.625-0.81384-0.54213 2.8151 0.56254 4.728 2.3371 4.047 1.0222-0.39224 1.4831-1.5494 1.2879-3.2331zm9.19-2.61c0-1.7645 3.7083-4.7983 4.937-4.0389 0.58465 0.36133 1.063 1.9054 1.063 3.4313 0 4.8032 2.3145 4.3425 12-2.3889 2.475-1.7201 5.3549-3.4488 6.3998-3.8416 1.8328-0.68889 1.824-0.79477-0.25-3.0024-1.1824-1.2586-2.1498-2.9987-2.1498-3.8669 0-0.86821-0.675-1.8376-1.5-2.1542-3.0266-1.1614-1.6651-3.6384 2-3.6384 3.0667 0 3.5 0.30952 3.5 2.5 0 1.5362 0.56838 2.5 1.4743 2.5 0.81088 0 2.1724 1.35 3.0257 3 1.7295 3.3444 2.6901 3.6808 4.4511 1.559 1.52-1.83-2.38-7.56-5.14-7.56-1.9769 0-2.2374-0.78071-0.94203-2.8238 0.74226-1.1707-0.47224-4.5728-3.1628-8.8595-0.74417-1.1856-8.6894 0.78725-11.281 2.8012-0.60323 0.46878-1.5767 0.3316-2.2213-0.31304-0.86337-0.86337-1.6752-0.47672-3.2784 1.5614-2.4674 3.1368-4.9265 2.1266-4.9265-2.024 0-2.0013-0.3028-2.2507-1.7758-1.4624-1.1246 0.60189-2.404 0.59886-3.4888-0.008-1.1678-0.65353-3.1599-0.46741-6.2591 0.5848-2.5004 0.84889-5.3606 1.5434-6.3562 1.5434-2.8506 0-5.4568 3.5219-4.7349 6.3984 0.3422 1.3635 0.17054 2.7582-0.38148 3.0993-0.55202 0.34117-0.99324 2.0562-0.98049 3.8113l0.0232 3.191 4.2268-4.6471c2.3248-2.5559 4.8318-5.3948 5.5711-6.3087 0.97956-1.2108 2.2005-1.4898 4.5-1.0283 8.1541 1.6367 8.5302 2.5068 2.4057 5.567-4.522 2.2595-7.6912 5.4858-7.7278 7.867-0.0173 1.1278 0.24443 1.1833 1.1778 0.25 1.2937-1.2937 4.6695-1.571 7.2182-0.59301 2.3603 0.90574 1.9119 4.1192-0.91821 6.58-2.675 2.3259-3.2964 5.3579-1.25 6.0992 1.4748 0.53428 4.75-2.0763 4.75-3.7862zm-20.55 0.25c0.29708-1.7875 0.17992-4.825-0.26036-6.75l-0.80051-3.5-1.7883 4.6402c-1.4042 3.6437-1.5458 5.0933-0.65914 6.75 1.6161 3.0197 2.8855 2.6072 3.5083-1.1402zm-54.45-7.92c0-0.57588-1.094-1.9076-2.4312-2.9594-2.68-2.1-8.57-13.12-8.57-16.03 0-1.01-0.14-1.84-0.31-1.84-1.25 0-8.69 4.23-8.69 4.93 0 2.1201 5.6003 9.179 7.7006 9.7061 1.2679 0.31823 3.4869 1.992 4.9311 3.7194 3.5879 4.2918 7.3684 5.562 7.3684 2.4758zm3.2636-10.99c1.23-0.63548 2.9114-1.5412 3.7364-2.0126 0.825-0.47145 3.4125-1.7355 5.75-2.809 5.3258-2.4459 5.6601-4.3781 0.59303-3.4275-2.0113 0.37733-4.8238 1.295-6.25 2.0392s-3.0948 1.3559-3.7082 1.3593c-1.486 0.008-6.3849 3.9049-6.3849 5.0787 0 1.2898 3.5777 1.1596 6.2636-0.22801zm-223.97-2.34c4.8583-2.0294 5.8593-9.1896 1.9036-13.617-6.1331-6.8642-19.297-4.0106-19.997 4.3347-0.79631 9.4943 7.4539 13.727 18.094 9.2821zm272.03-2.7664c1.7757-7.5547-3.4349-9.6926-6.1544-2.5252-1.8316 4.8272-0.98768 7.0158 2.5465 6.6045 2.2311-0.25965 2.8836-0.99739 3.6079-4.0793zm-310.7 1.093c4.2561-2.1256 4.3855-2.1315 6.4181-0.29203 3.2589 2.9493 8.8036-1.6091 6.0269-4.9548-1.6105-1.9405-11.784-2.1782-16.727-0.39079-2.8356 1.0254-4.0401 0.88925-8.571-0.96865-2.895-1.17-7.292-2.42-9.767-2.76-2.475-0.33689-5.625-0.98017-7-1.4295-13.728-4.4864-23.082-2.885-20.192 3.457 1.5558 3.4146 3.4437 4.0093 19.229 6.0574 7.4049 0.96078 15.713 2.0701 18.463 2.4651 2.75 0.39502 5.6257 0.78157 6.3905 0.85901 0.76476 0.0774 3.3451-0.8354 5.7341-2.0285zm319.08-14.98c-0.30714-2.2899-1.5081-5.3274-2.6687-6.75-1.1607-1.4226-2.8811-3.8459-3.8232-5.385-0.94211-1.5392-3.6213-5.3642-5.9537-8.5s-4.9044-7.0515-5.7154-8.7015c-0.81102-1.65-3.2833-5.25-5.494-8-3.8559-4.7966-4.9935-6.8169-9.1508-16.25-1.906-4.3248-3.5463-5.2027-5.699-3.05-2.0417 2.0417-1.3646 4.327 3.3 11.14 2.475 3.6146 4.5 6.9506 4.5 7.4132 0 1.014 7.5022 12.534 11.656 17.899 1.639 2.1168 4.2417 6.3238 5.7836 9.3488 7.0665 13.863 14.484 19.923 13.266 10.837zm81.3-2.84c4.125-1.1955 9.075-2.8097 11-3.587 7.0797-2.8589 19.745-5.5507 28.74-6.1082 9.3969-0.58241 13.738-2.3799 9.2147-3.8155-3.3139-1.0518-19.623 0.4853-27.686 2.6093-3.9774 1.0477-8.0882 1.905-9.1352 1.905s-4.3177 0.71992-7.2684 1.5998c-9.636 2.8735-14.296 4.2139-18.615 5.3547-3.4939 0.92285-4.25 1.5456-4.25 3.5007 0 3.0404 1.3626 3.4514 6.4204 1.9366 2.2438-0.67197 7.4546-2.1999 11.58-3.3954zm-386.2 2.5823c7.036-3.7032 8.8866-14.398 4.1753-24.13-2.1469-4.435-2.644-11.917-0.86478-13.016 1.8428-1.1389 0.24737-7.094-3.2633-12.181-4.4463-6.4422-8.9859-11.283-9.9954-10.66-0.90731 0.56075 3.4776 9.8756 5.1295 10.896 0.56 0.34 1.019 2.57 1.019 4.93 0 2.8693 0.70536 5.2028 2.114 6.9936 2.8657 3.6432 2.0085 4.0504-4.5266 2.1506-6.7709-1.9683-7.8377-3.7103-9.5347-15.568-0.66901-4.675-1.9048-9.9242-2.7462-11.665-0.84138-1.7407-1.2472-3.6221-0.90184-4.1809 0.34537-0.55881 0.22803-1.2632-0.26075-1.5653-3.0797-1.9033-2.7727 17.977 0.39376 25.501 5.4863 13.035-0.09093 27.474-13.917 36.031-9.0014 5.571 23.022 11.804 33.179 6.4578zm-43.125-1.6151c2.7132-0.94583 7.3852-8.2375 6.1009-9.5218-0.97015-0.97014-12.832 5.1624-13.391 6.9229-1.0281 3.2392 2.1763 4.3815 7.2902 2.5988zm520.32-0.78c0-3.0111-3.3942-11.322-4.9679-12.164-4.8888-2.6164-5.3415-0.0614-0.93597 5.2833 1.7029 2.0659 2.8589 4.3744 2.5689 5.1301-0.28998 0.75567-0.25823 1.6429 0.0705 1.9717 0.8856 0.88561 3.2644 0.72476 3.2644-0.22073zm-459.55-14.21c-0.05012-7.6319-2.312-13.547-4.8401-12.657-1.4014 0.49312-1.0036 16.08 0.48109 18.855 2.4172 4.5166 4.4108 1.6823 4.359-6.1973zm262.39 4.6136c0.41-2.1-1.73-7.58-2.96-7.58-1.0064 0-1.1884 6.0292-0.25547 8.4605 0.77331 2.0152 2.76 1.4762 3.2154-0.87244zm35.723-5.6564c3.4139-3.7723-2.2164-10.123-6.1099-6.8918-1.8801 1.5603-1.8428 3.9571 0.10474 6.7376 1.94 2.7698 3.5995 2.8124 6.0052 0.15417zm-48.06-2.32c6.6637-2.5506 7.8231-4.5033 4.1158-6.9324-4.7755-3.129-10.036-3.2353-11.405-0.23032-0.73571 1.6147-2.929 3.3702-5.6886 4.5531-10.701 4.5868 1.4366 7.0272 12.978 2.6096zm216.5-0.27c0-1.7141-3.5702-4.3282-5.905-4.3238l-2.595 0.005 3 2.4591c2.8926 2.3711 5.5 3.2527 5.5 1.8597zm-185.93-12.602c0.59844-2.2224 1.5218-6.7825 2.0518-10.134 3.0558-19.318 8.775-29.648 27.438-49.558 12.14-12.95 16.91-19.04 14.92-19.04-1.9237 0-27.109 25.248-28.007 28.076-0.6881 2.168-5.1905 5.2184-6.5041 4.4065-3.2036-1.98-0.71014-12.553 6.6436-28.171 3.5-7.42 4.01-9.31 2.53-9.31-1.4687 0-6.136 7.481-6.136 9.8351 0 1.2252-0.65787 2.4801-1.4619 2.7886-0.80407 0.30854-1.7174 1.366-2.0297 2.3498-0.31227 0.98387-1.4544 2.8112-2.5381 4.0606-1.3402 1.5452-1.9738 3.742-1.9811 6.8688-0.006 2.5283-0.68096 6.806-1.5 9.5059-0.82 2.7-1.49 7.25-1.49 10.12 0 2.8684-0.6977 7.1844-1.5504 9.5911-1.2968 3.6598-4.4027 26.924-4.4388 33.248-0.0183 3.1946 2.8282-0.0605 4.063-4.6462zm132.37 0.54193c4.9685-3.0011 5.9954-4.556 4.683-7.0906-0.47772-0.92266-1.1642-3.7026-1.5256-6.1776-1.0309-7.0612-2.0494-7.9387-4.5467-3.9177-1.2486 2.0104-1.9408 4.4413-1.6809 5.9034 0.24294 1.3671-0.41593 4.7421-1.4642 7.5-2.9423 7.7411-2.5547 8.0644 4.5343 3.7825zm-470.92-4.21c-1.6947-5.3394-18.125-19.785-20.173-17.736-1.3011 1.3011 9.2659 15.23 15.913 20.975 2.6553 2.295 5.3636 0.23648 4.2607-3.2385zm513.82 1.9497c1.4887-1.3902-1.0796-2.0693-11.128-2.9421-10.14-0.89-15.21-0.52-15.21 1.08 0 2.8532 23.497 4.5122 26.337 1.8596zm-539.73-13.76c-0.35781-2.6125-0.75384-6.725-0.88005-9.1389-0.2579-4.9322-2.9842-7.8711-4.7414-5.1111-1.926 3.0252 2.4469 19 5.201 19 0.70237 0 0.8471-1.635 0.42047-4.75zm353.5-12.25c0.81777-22.06 1.022-53.467 0.34326-52.788-5.9924 5.9924-8.8385 70.413-3.0746 69.591 2.0328-0.29007 2.1447-0.97886 2.7313-16.802zm32.284 11.828c1.8231-5.2058-4.5023-10.321-8.1957-6.6275-1.9992 1.9992-1.4244 6.5284 1.05 8.273 3.1221 2.2013 6.0333 1.5309 7.1457-1.6455zm90.19-40.676c-0.90566-0.90849-4.4176-2.5808-7.8042-3.7163-6.0424-2.0259-8.789-4.4355-5.0557-4.4355 7.0746 0 5.9177-5.7016-1.3549-6.6771-3.6977-0.49597-3.9963-0.33124-5.6376 3.1106-3.2905 6.9003-2.3693 9.248 4.1898 10.678 1.9674 0.429 6.5021 1.6131 10.077 2.6313 6.6379 1.8906 8.5216 1.354 5.5855-1.5913zm-108.09-17.06c-0.3502-1.3953-0.99942-7.0488-1.4427-12.563-0.44329-5.5145-1.3822-11.944-2.0864-14.287-1.2399-4.1261-1.1774-4.4044 1.9713-8.789 4.959-6.9053 0.98158-10.514-4.9979-4.5345-3.2165 3.2165-3.3166 7.2891-0.4198 17.084 0.73193 2.475 1.6134 8.775 1.9587 14 0.34539 5.225 0.8963 11.043 1.2243 12.93l0.59628 3.43 1.9165-2.3668c1.3149-1.6238 1.7166-3.1631 1.2797-4.9037zm55.849-16.085c2.6594-2.4776 6.8219-5.7431 9.25-7.2566 5.6534-3.5239 5.6351-5.6018-0.0868-9.8814-8.1282-6.0793-3.7498-12.872 4.8032-7.4521 6.3235 4.0072 11.752 2.8918 13.086-2.6889 0.60316-2.5238 0.49348-2.6683-1.2151-1.6013-1.4373 0.89759-5.1184 0.89361-15.684-0.017-8.5558-0.73736-14.161-0.83457-14.74-0.25562-0.97923 0.97923 1.7919 6.148 3.2961 6.148 7.9783 0 7.1052 11.424-1.5498 20.277-4.13 4.22-7.5 8.14-7.5 8.7 0 0.57-0.45 1.03-1 1.03s-1 0.6979-1 1.5509c0 1.8325 4.6623-1.3976 12.335-8.5461zm49.18-8.5c3.2447-4.95 7.2299-10.687 8.8559-12.75 1.626-2.0623 2.7144-3.9916 2.4186-4.2874-1.5188-1.5188-5.9253 2.6443-11.296 10.672-8.7421 13.066-8.9034 13.371-8.1344 15.375 0.84132 2.1924 0.73769 2.3069 8.1562-9.0104zm-77.766-11.432c1.5095-1.8879 4.9051-5.8557 7.5459-8.8174s4.682-6.1421 4.536-7.0675c-0.14601-0.92544 0.51605-2.8567 1.4712-4.2917 3.0861-4.6362-0.1316-7.954-3.7917-3.9097-1.5086 1.667-1.583 2.2342-0.46929 3.5762 1.9034 2.2934-0.28853 3.4082-6.7387 3.4272-6.2149 0.0183-6.2521 0.068-8.326 11.106-1.8458 9.824-1.1017 15.159 1.5914 11.41 0.79013-1.1 2.6716-3.5446 4.1811-5.4325zm-3.2403-26.116c1.0404-3.278-1.3295-5.43-3.6586-3.3222-1.0211 0.92412-1.8566 2.5105-1.8566 3.5252 0 2.6749 4.6562 2.5036 5.5152-0.20298zm33.987-9.0812c13.796-15.963 16.638-20.564 13.924-22.548-2.873-2.1008-7.267 0.35522-17.426 9.7404-3.025 2.7945-7.1875 5.9577-9.25 7.0293-4.4655 2.3202-5.0352 5.4687-1.25 6.9078 1.9816 0.75342 2.5 1.6468 2.5 4.3086 0 6.7797 1.5944 6.026 11.502-5.4378zm-28.673-2.202c0.27033-1.4177-0.17665-1.7564-1.9796-1.5-1.2937 0.184-2.484 1.1451-2.6779 2.1624-0.27033 1.4177 0.17665 1.7564 1.9796 1.5 1.2937-0.184 2.484-1.1451 2.6779-2.1624zm13.402-7.9974c3.0766-2.2746 3.5482-4.1585 1.2607-5.0363-0.82976-0.3184-1.9954-1.6472-2.5903-2.9528l-1.0816-2.3739-3.9097 3.5098c-4.361 3.9149-4.6028 4.7472-2.3247 7.9997 1.7941 2.5614 4.0317 2.2646 8.6456-1.1466zm18.27-13.27c7.3009-5.2211 8.2609-7.1768 5.8981-12.016-2.3649-4.8438-5.0684-5.3774-9.2819-1.832-1.7378 1.4622-4.1623 2.5805-5.3879 2.4849-1.2256-0.09553-4.3658-0.20035-6.9783-0.23294-4.2428-0.05292-4.75-0.29968-4.75-2.311 0-3.6222 2.5203-5.0719 6.3868-3.6737 1.79 0.651 3.75 1.181 4.35 1.181 1.64 0 5.26-6.368 5.26-9.246 0-1.3804 0.70578-4.199 1.5684-6.2636 2.0565-4.922 0.85669-6.2635-4.211-4.7081-2.9636 0.90956-4.2014 0.84687-6.2746-0.3178-1.4205-0.79798-3.8202-1.8928-5.3327-2.433-1.6303-0.58223-2.75-1.7217-2.75-2.7986 0-2.3938-8.1436-10.335-10.589-10.326-2.7218 0.01047-20.433 3.7808-21.156 4.5036-0.33163 0.33163-0.63732 3.8623-0.67932 7.846-0.0656 6.2186-0.38971 7.497-2.2919 9.0385-3.1781 2.5756-4.7272 8.6992-2.7031 10.686 1.3866 1.3608 1.7399 1.2847 3.3935-0.73109 3.61-4.388 8.03-2.278 8.03 3.829 0 2.049 0.66426 4.2288 1.5 4.9224 0.84602 0.70213 1.5 2.8821 1.5 5 0 2.0653 0.64829 4.2931 1.4406 4.9507 0.79235 0.6576 1.5798 2.4002 1.75 3.8724 0.60234 5.2119 11.931 3.0123 17.628-3.4228 3.7193-4.201 7.9101-4.5375 7.3582-0.59076-0.17763 1.2703 0.21022 2.9521 0.86188 3.7373s0.92361 2.1084 0.60434 2.9404c-2.1669 5.6468 3.3836 4.1212 14.857-4.0836zm27.5-53.421c0-0.56179-1.2375-1.5648-2.75-2.2289-1.5125-0.66413-3.0878-1.74-3.5006-2.3908-0.41281-0.65079-2.6628-1.4862-5-1.8565-2.34-0.371-6.05-1.497-8.25-2.503-2.2-1.0061-5.8-2.0757-8-2.3768s-7.15-0.99134-11-1.5339c-15.047-2.1203-38.997-1.3777-45.064 1.3973-8.8741 4.0591-7.2539 4.9417 7.3141 3.9842 26.618-1.7495 49.363 0.3912 67.75 6.3765 7.0986 2.3107 8.5 2.4973 8.5 1.1314zm-8.3931-13.151c0.3987-0.64512 1.0472-2.9352 1.441-5.0892l0.71613-3.9162-3.6244 0.67994c-4.83 0.905-5.14 1.167-5.14 4.356 0 4.347 4.6476 7.1383 6.6069 3.968zm-17.364-5.4769c2.75-1.703-2.87-10.351-6.73-10.351-3.3952 0-5.7437 9.1666-2.8022 10.937 1.6056 0.96643 7.6103 0.59646 9.525-0.58688zm-23.5-2.592c4.3143-3.4647 1.5241-5.5477-8-5.9725-9.5326-0.42512-13.75 1.0588-13.75 4.8381 0 2.9687 18.279 3.922 21.75 1.1343zm39.471-6.0802c3.1111-2.3001 3.6217-3.4956 3.9204-9.1788 0.29739-5.6592-1.4194-8.2887-5.9031-9.0415-2.0558-0.34514-7.0054-1.4895-10.999-2.543-7.2983-1.9253-49.405-2.9403-53.694-1.2943-4.2215 1.62-6.0235 12.619-3.0191 18.428 1.75 3.3841 2.2212 3.4605 8.8832 1.4395 3.19-0.968 9.16-1.49 17.03-1.49 9.4069 0 12.621-0.35221 14.366-1.574 2.696-1.8884 7.5856-1.1207 9.4465 1.4831 4.6389 6.4907 13.922 8.2428 19.972 3.7697z"/>
</svg>
