<svg id="visual" viewBox="0 0 1920 1080" width="1920" height="1080" xmlns="http://www.w3.org/2000/svg" xmlns:xlink="http://www.w3.org/1999/xlink" version="1.1"><path d="M0 131L80 205.2C160 279.3 320 427.7 480 473C640 518.3 800 460.7 960 382C1120 303.3 1280 203.7 1440 164.7C1600 125.7 1760 147.3 1840 158.2L1920 169L1920 1081L1840 1081C1760 1081 1600 1081 1440 1081C1280 1081 1120 1081 960 1081C800 1081 640 1081 480 1081C320 1081 160 1081 80 1081L0 1081Z" fill="#265ecb"></path><path d="M0 814L80 813C160 812 320 810 480 725C640 640 800 472 960 391.8C1120 311.7 1280 319.3 1440 398.3C1600 477.3 1760 627.7 1840 702.8L1920 778L1920 1081L1840 1081C1760 1081 1600 1081 1440 1081C1280 1081 1120 1081 960 1081C800 1081 640 1081 480 1081C320 1081 160 1081 80 1081L0 1081Z" fill="#3065ce"></path><path d="M0 806L80 779.5C160 753 320 700 480 717.7C640 735.3 800 823.7 960 843.5C1120 863.3 1280 814.7 1440 787.5C1600 760.3 1760 754.7 1840 751.8L1920 749L1920 1081L1840 1081C1760 1081 1600 1081 1440 1081C1280 1081 1120 1081 960 1081C800 1081 640 1081 480 1081C320 1081 160 1081 80 1081L0 1081Z" fill="#3a6cd0"></path><path d="M0 1044L80 985C160 926 320 808 480 757.2C640 706.3 800 722.7 960 781.2C1120 839.7 1280 940.3 1440 966.2C1600 992 1760 943 1840 918.5L1920 894L1920 1081L1840 1081C1760 1081 1600 1081 1440 1081C1280 1081 1120 1081 960 1081C800 1081 640 1081 480 1081C320 1081 160 1081 80 1081L0 1081Z" fill="#4373d3"></path></svg>